<svg width="40" height="40" viewBox="0 0 40 40" fill="none" xmlns="http://www.w3.org/2000/svg">
<circle cx="20" cy="20" r="20" fill="#5969FF"/>
<path d="M15.8231 20.9198C15.8552 20.9464 15.8816 20.9672 15.9068 20.9891C16.5892 21.581 17.2722 22.1724 17.9534 22.7654C18.2903 23.0586 18.6764 23.2853 19.1363 23.4014C20.1344 23.6532 21.0545 23.513 21.8426 22.9173C22.3101 22.564 22.7308 22.1643 23.1714 21.7842C23.5017 21.4992 23.8297 21.2122 24.1493 20.9344L30.9329 26.8207C30.6462 26.9759 30.3179 27.0599 29.9657 27.077C29.9063 27.0799 29.8468 27.0791 29.7873 27.0791C23.2511 27.0792 16.7148 27.0786 10.1787 27.0803C9.76509 27.0804 9.38112 27.0025 9.01558 26.8015C11.2851 24.8406 13.5519 22.8821 15.8231 20.9198ZM14.4587 19.7589C12.3061 21.6185 10.16 23.4724 8 25.3383V14.1302C10.1569 16.01 12.3037 17.8809 14.4587 19.7589ZM25.5606 19.7384C27.6916 17.8812 29.8396 16.0092 32 14.1262V25.3263C29.8622 23.4713 27.7154 21.6083 25.5606 19.7384ZM8.72345 12.4403C9.03386 12.2135 9.37802 12.0775 9.76445 12.0264C9.90411 12.008 10.0473 12.0028 10.1889 12.0028C16.728 12.0017 23.2674 12.0026 29.8063 12.0002C30.3317 12.0001 30.8013 12.125 31.2141 12.407C31.2244 12.4141 31.2351 12.4209 31.2446 12.4287C31.2493 12.4324 31.2517 12.4383 31.2581 12.4476C31.2367 12.467 31.2148 12.4878 31.1922 12.5076C27.7015 15.5366 24.2107 18.5657 20.7199 21.5945C20.4321 21.8442 20.093 21.9339 19.6973 21.8292C19.5292 21.7848 19.3923 21.696 19.2693 21.5892C16.0379 18.7849 12.8063 15.9808 9.57463 13.1768C9.29431 12.9336 9.01324 12.691 8.72345 12.4403Z" fill="white"/>
</svg>
