<svg width="40" height="40" viewBox="0 0 40 40" fill="none" xmlns="http://www.w3.org/2000/svg">
<circle cx="20" cy="20" r="20" fill="#5969FF"/>
<path d="M12.1477 22.4281L12.1943 22.4982C12.2527 22.584 12.311 22.6658 12.3693 22.7516L19.1243 32.4951C19.3211 32.7789 19.6447 32.9484 19.9896 32.9484C20.3346 32.9484 20.6581 32.7789 20.8549 32.4951L27.6021 22.7671C27.6643 22.6775 27.7305 22.5879 27.7927 22.4943L27.8355 22.432C28.8116 20.919 29.3307 19.1554 29.3307 17.3536C29.3307 12.2222 25.1175 7.99976 19.9974 7.99976C14.8773 7.99976 10.6641 12.2222 10.6641 17.3536C10.6641 19.1554 11.1832 20.919 12.1593 22.432L12.1477 22.4281ZM19.9916 13.464C22.125 13.464 23.8805 15.2233 23.8805 17.3614C23.8805 19.4995 22.125 21.2588 19.9916 21.2588C17.8581 21.2588 16.1027 19.4995 16.1027 17.3614C16.1027 15.2233 17.8581 13.464 19.9916 13.464Z" fill="white"/>
</svg>
