<svg width="15" height="12" viewBox="0 0 15 12" fill="none" xmlns="http://www.w3.org/2000/svg">
<path d="M7.84402 6.85848V5.15531C7.84402 4.7036 8.02346 4.27039 8.34287 3.95099C8.66227 3.63158 9.09548 3.45214 9.54719 3.45214H13.5213C13.7152 3.45091 13.9077 3.48555 14.089 3.55433V2.31669C14.089 1.86499 13.9095 1.43178 13.5901 1.11237C13.2707 0.792966 12.8375 0.613525 12.3858 0.613525H2.16679C1.71508 0.613525 1.28188 0.792966 0.96247 1.11237C0.643064 1.43178 0.463623 1.86499 0.463623 2.31669V9.69709C0.463623 10.1488 0.643064 10.582 0.96247 10.9014C1.28188 11.2208 1.71508 11.4003 2.16679 11.4003H12.3858C12.8375 11.4003 13.2707 11.2208 13.5901 10.9014C13.9095 10.582 14.089 10.1488 14.089 9.69709V8.45946C13.9077 8.52823 13.7152 8.56288 13.5213 8.56165H9.54719C9.09548 8.56165 8.66227 8.38221 8.34287 8.0628C8.02346 7.74339 7.84402 7.31019 7.84402 6.85848Z" fill="#5969FF"/>
<path fill-rule="evenodd" clip-rule="evenodd" d="M9.54719 4.58759H13.5213C13.6718 4.58759 13.8162 4.6474 13.9227 4.75387C14.0292 4.86034 14.089 5.00474 14.089 5.15531V6.85848C14.089 7.00905 14.0292 7.15345 13.9227 7.25992C13.8162 7.36639 13.6718 7.4262 13.5213 7.4262H9.54719C9.39662 7.4262 9.25222 7.36639 9.14575 7.25992C9.03928 7.15345 8.97947 7.00905 8.97947 6.85848V5.15531C8.97947 5.00474 9.03928 4.86034 9.14575 4.75387C9.25222 4.6474 9.39662 4.58759 9.54719 4.58759ZM10.4934 6.71496C10.6334 6.80853 10.7981 6.85848 10.9665 6.85848C11.1924 6.85848 11.409 6.76876 11.5687 6.60905C11.7284 6.44935 11.8181 6.23275 11.8181 6.00689C11.8181 5.83847 11.7681 5.67382 11.6746 5.53378C11.581 5.39374 11.448 5.28459 11.2924 5.22013C11.1368 5.15568 10.9656 5.13881 10.8004 5.17167C10.6352 5.20453 10.4834 5.28564 10.3643 5.40473C10.2452 5.52383 10.1641 5.67557 10.1313 5.84076C10.0984 6.00595 10.1153 6.17717 10.1797 6.33278C10.2442 6.48839 10.3533 6.62139 10.4934 6.71496Z" fill="#5969FF"/>
</svg>
