<svg width="21.000000" height="22.000000" viewBox="0 0 21 22" fill="none" xmlns="http://www.w3.org/2000/svg" xmlns:xlink="http://www.w3.org/1999/xlink">
	<desc>
			Created with Pixso.
	</desc>
	<defs/>
	<path id="Vector" d="M12.16 4C12.16 1.6 14.11 -0.34 16.5 -0.34C18.89 -0.34 20.83 1.6 20.83 4C20.83 6.38 18.89 8.33 16.5 8.33C14.11 8.33 12.16 6.38 12.16 4ZM3.5 -0.34C1.11 -0.34 -0.84 1.6 -0.84 4C-0.84 6.38 1.11 8.33 3.5 8.33C5.89 8.33 7.83 6.38 7.83 4C7.83 1.6 5.89 -0.34 3.5 -0.34ZM16.5 12.66C14.11 12.66 12.16 14.6 12.16 17C12.16 19.38 14.11 21.33 16.5 21.33C18.89 21.33 20.83 19.38 20.83 17C20.83 14.6 18.89 12.66 16.5 12.66ZM3.5 12.66C1.11 12.66 -0.84 14.6 -0.84 17C-0.84 19.38 1.11 21.33 3.5 21.33C5.89 21.33 7.83 19.38 7.83 17C7.83 14.6 5.89 12.66 3.5 12.66Z" fill="#5969FF" fill-opacity="1.000000" fill-rule="nonzero"/>
</svg>
