<svg width="76" height="76" viewBox="0 0 76 76" fill="none" xmlns="http://www.w3.org/2000/svg">
<rect width="76" height="76" rx="38" fill="#5969FF"/>
<path fill-rule="evenodd" clip-rule="evenodd" d="M48.0385 26.017C47.6542 26.017 47.2785 26.131 46.959 26.3445C46.6394 26.558 46.3903 26.8615 46.2433 27.2166C46.0962 27.5717 46.0577 27.9624 46.1327 28.3393C46.2077 28.7162 46.3927 29.0625 46.6645 29.3342C46.9363 29.606 47.2825 29.7911 47.6594 29.8661C48.0364 29.941 48.4271 29.9025 48.7822 29.7555C49.1372 29.6084 49.4407 29.3593 49.6542 29.0398C49.8678 28.7202 49.9817 28.3445 49.9817 27.9602C49.9813 27.445 49.7765 26.9509 49.4121 26.5866C49.0478 26.2223 48.5538 26.0174 48.0385 26.017ZM48.0385 28.6079C47.9104 28.6079 47.7852 28.5699 47.6787 28.4988C47.5722 28.4276 47.4891 28.3264 47.4401 28.2081C47.3911 28.0897 47.3783 27.9595 47.4033 27.8338C47.4282 27.7082 47.4899 27.5928 47.5805 27.5022C47.6711 27.4116 47.7865 27.3499 47.9122 27.3249C48.0378 27.2999 48.168 27.3128 48.2864 27.3618C48.4048 27.4108 48.5059 27.4938 48.5771 27.6003C48.6483 27.7069 48.6863 27.8321 48.6863 27.9602C48.6858 28.1318 48.6174 28.2963 48.496 28.4177C48.3746 28.539 48.2102 28.6074 48.0385 28.6079Z" fill="white"/>
<path fill-rule="evenodd" clip-rule="evenodd" d="M52.5222 27.3125C52.5541 27.527 52.5715 27.7434 52.574 27.9602C52.5715 28.177 52.5541 28.3934 52.5222 28.6079H54.8086C54.7077 29.6468 54.3689 30.6484 53.8185 31.5352C53.2681 32.422 52.5209 33.1702 51.6348 33.7217L50.6211 31.6846C50.2641 31.932 49.8737 32.1272 49.4617 32.2643L50.4786 34.3014C48.9106 34.9146 47.1692 34.9146 45.6012 34.3014L46.6181 32.2643C46.2061 32.1272 45.8157 31.932 45.4587 31.6846L44.445 33.7217C43.5589 33.1702 42.8117 32.422 42.2613 31.5352C41.7109 30.6484 41.3721 29.6468 41.2711 28.6079H43.5576C43.5256 28.3934 43.5083 28.177 43.5058 27.9602C43.5083 27.7434 43.5256 27.527 43.5576 27.3125H41.2711C41.3721 26.2736 41.7109 25.272 42.2613 24.3852C42.8117 23.4984 43.5589 22.7502 44.445 22.1987L45.4587 24.2358C45.8157 23.9885 46.2061 23.7933 46.6181 23.6561L45.6012 21.6189C47.1692 21.0058 48.9106 21.0058 50.4786 21.6189L49.4616 23.6561C49.8737 23.7933 50.2641 23.9885 50.6211 24.2358L51.6348 22.1987C52.5209 22.7502 53.2681 23.4984 53.8185 24.3852C54.3689 25.272 54.7077 26.2736 54.8086 27.3125H52.5222ZM46.2406 30.653C46.7732 31.0089 47.3993 31.1988 48.0399 31.1988C48.8984 31.1974 49.7213 30.8558 50.3284 30.2487C50.9354 29.6416 51.2771 28.8187 51.2785 27.9602C51.2785 27.3197 51.0886 26.6935 50.7327 26.1609C50.3768 25.6283 49.871 25.2132 49.2793 24.9681C48.6875 24.723 48.0363 24.6588 47.4081 24.7838C46.7798 24.9088 46.2028 25.2172 45.7498 25.6701C45.2969 26.1231 44.9884 26.7001 44.8635 27.3284C44.7385 27.9566 44.8027 28.6078 45.0478 29.1996C45.2929 29.7914 45.708 30.2972 46.2406 30.653Z" fill="white"/>
<path fill-rule="evenodd" clip-rule="evenodd" d="M48.0385 17.2727C45.9248 17.2727 43.8584 17.8995 42.1009 19.0739C40.3433 20.2482 38.9735 21.9174 38.1646 23.8703C37.3557 25.8232 37.144 27.9721 37.5564 30.0452C37.9688 32.1184 38.9867 34.0227 40.4813 35.5174C41.976 37.0121 43.8803 38.03 45.9535 38.4424C48.0267 38.8547 50.1756 38.6431 52.1285 37.8342C54.0814 37.0253 55.7505 35.6554 56.9249 33.8979C58.0992 32.1403 58.726 30.074 58.726 27.9602C58.7232 25.1266 57.5964 22.4098 55.5927 20.4061C53.589 18.4024 50.8722 17.2755 48.0385 17.2727ZM48.0385 36.0568C46.4372 36.0568 44.8718 35.5819 43.5403 34.6923C42.2088 33.8026 41.1711 32.5381 40.5583 31.0586C39.9455 29.5792 39.7851 27.9512 40.0975 26.3806C40.4099 24.8101 41.1811 23.3674 42.3134 22.2351C43.4457 21.1027 44.8884 20.3316 46.459 20.0192C48.0296 19.7068 49.6575 19.8671 51.137 20.4799C52.6164 21.0927 53.8809 22.1305 54.7706 23.462C55.6603 24.7935 56.1351 26.3589 56.1351 27.9602C56.1332 30.107 55.2796 32.1653 53.7616 33.6833C52.2436 35.2013 50.1853 36.0549 48.0385 36.0568Z" fill="white"/>
<path fill-rule="evenodd" clip-rule="evenodd" d="M35.5503 47.1038H34.9674C34.7681 46.2599 34.4334 45.4538 33.9764 44.7169L34.3909 44.3056C34.6069 44.0889 34.728 43.7954 34.7277 43.4894C34.7282 43.3384 34.6986 43.1888 34.6408 43.0492C34.583 42.9097 34.4981 42.783 34.3909 42.6766L33.3222 41.6078C33.2152 41.5008 33.0883 41.4159 32.9485 41.3579C32.8088 41.3 32.6589 41.2702 32.5076 41.2702C32.3564 41.2702 32.2065 41.3 32.0668 41.3579C31.927 41.4159 31.8001 41.5008 31.6931 41.6078L31.2818 42.0223C30.5433 41.5685 29.7377 41.2341 28.895 41.0313V40.4484C28.8948 40.1426 28.7733 39.8494 28.5571 39.6333C28.3409 39.4171 28.0477 39.2956 27.742 39.2954H26.2328C25.927 39.2956 25.6339 39.4171 25.4177 39.6333C25.2015 39.8495 25.08 40.1426 25.0798 40.4484V41.0313C24.237 41.2341 23.4315 41.5686 22.693 42.0224L22.2784 41.6078C22.1718 41.5008 22.0451 41.4159 21.9056 41.358C21.7661 41.3 21.6166 41.2702 21.4655 41.2702C21.3145 41.2702 21.1649 41.3 21.0254 41.358C20.8859 41.4159 20.7592 41.5008 20.6526 41.6078L19.5839 42.6766C19.4771 42.7833 19.3924 42.91 19.3346 43.0495C19.2768 43.189 19.247 43.3385 19.247 43.4895C19.247 43.6404 19.2768 43.7899 19.3346 43.9294C19.3924 44.0689 19.4771 44.1956 19.5839 44.3024L19.9984 44.7169C19.5414 45.4538 19.2067 46.2599 19.0074 47.1038H18.4244C18.1189 47.1045 17.826 47.2261 17.6099 47.4422C17.3938 47.6583 17.2722 47.9512 17.2715 48.2567V49.7659C17.2722 50.0715 17.3938 50.3644 17.6099 50.5805C17.826 50.7965 18.1189 50.9182 18.4244 50.9189H19.0074C19.2067 51.7628 19.5414 52.5689 19.9984 53.3058L19.5839 53.7171C19.3679 53.9338 19.2468 54.2273 19.2471 54.5332C19.2466 54.6843 19.2762 54.8339 19.334 54.9734C19.3918 55.113 19.4767 55.2396 19.5839 55.3461L20.6526 56.4149C20.7595 56.5219 20.8865 56.6068 21.0263 56.6648C21.166 56.7227 21.3158 56.7525 21.4671 56.7525C21.6184 56.7525 21.7682 56.7227 21.908 56.6648C22.0478 56.6068 22.1747 56.5219 22.2817 56.4149L22.693 56.0003C23.4315 56.4541 24.2371 56.7886 25.0798 56.9913V57.5743C25.08 57.88 25.2015 58.1732 25.4177 58.3894C25.6339 58.6056 25.927 58.7271 26.2328 58.7273H27.742C28.0477 58.7271 28.3409 58.6056 28.5571 58.3894C28.7733 58.1732 28.8948 57.88 28.895 57.5743V56.9913C29.7377 56.7886 30.5433 56.4541 31.2818 56.0003L31.6964 56.4148C31.803 56.5219 31.9297 56.6068 32.0692 56.6647C32.2087 56.7227 32.3582 56.7525 32.5093 56.7525C32.6603 56.7525 32.8099 56.7227 32.9494 56.6647C33.0889 56.6068 33.2156 56.5219 33.3222 56.4148L34.3909 55.3461C34.4977 55.2394 34.5824 55.1126 34.6402 54.9732C34.698 54.8337 34.7277 54.6842 34.7277 54.5332C34.7277 54.3822 34.698 54.2327 34.6402 54.0932C34.5824 53.9538 34.4977 53.827 34.3909 53.7203L33.9764 53.3058C34.4334 52.5688 34.7681 51.7628 34.9674 50.9189H35.5503C35.8559 50.9182 36.1488 50.7965 36.3649 50.5804C36.5809 50.3644 36.7026 50.0715 36.7033 49.7659V48.2567C36.7026 47.9511 36.5809 47.6583 36.3649 47.4422C36.1488 47.2261 35.8559 47.1044 35.5503 47.1038ZM26.9874 52.5738C26.2828 52.5738 25.594 52.3649 25.0082 51.9735C24.4223 51.582 23.9657 51.0256 23.6961 50.3747C23.4264 49.7237 23.3559 49.0074 23.4933 48.3163C23.6308 47.6253 23.9701 46.9905 24.4683 46.4923C24.9666 45.9941 25.6013 45.6548 26.2924 45.5173C26.9834 45.3798 27.6997 45.4504 28.3507 45.72C29.0017 45.9897 29.5581 46.4463 29.9495 47.0321C30.341 47.618 30.5499 48.3067 30.5499 49.0113C30.5502 49.4793 30.4582 49.9426 30.2793 50.375C30.1003 50.8073 29.8379 51.2001 29.5071 51.531C29.1762 51.8619 28.7834 52.1243 28.351 52.3032C27.9187 52.4821 27.4553 52.5741 26.9874 52.5738Z" fill="white"/>
<path fill-rule="evenodd" clip-rule="evenodd" d="M34.6963 32.294L44.1305 41.3427C44.9058 41.171 45.7118 41.1973 46.4742 41.4192C47.2366 41.6411 47.9309 42.0514 48.4929 42.6123C48.985 43.0881 49.3713 43.6622 49.6269 44.2972C49.8824 44.9322 50.0015 45.6138 49.9762 46.2979C49.9467 47.0264 49.7642 47.7406 49.4406 48.394C49.117 49.0473 48.6595 49.6253 48.0978 50.0903C47.1757 50.8611 46.0124 51.284 44.8106 51.2854C43.683 51.2932 42.588 50.9072 41.7145 50.1939C41.0362 49.6656 40.5158 48.9615 40.2098 48.1581C39.9037 47.3547 39.8237 46.4828 39.9786 45.6372L30.5477 36.5852C29.7928 36.7717 29.0026 36.7606 28.2532 36.553C27.5039 36.3454 26.8207 35.9482 26.2694 35.3999C25.6327 34.8131 25.1667 34.0649 24.9209 33.2347C24.6752 32.4045 24.6588 31.5232 24.8736 30.6844C24.9034 30.5765 24.9605 30.4781 25.0394 30.3986C25.1183 30.3192 25.2163 30.2614 25.324 30.2308C25.4317 30.2002 25.5454 30.1979 25.6543 30.224C25.7632 30.2501 25.8635 30.3038 25.9455 30.38C25.9585 30.3897 27.9988 32.3199 27.9988 32.3199C28.1959 32.4756 28.4392 32.561 28.6902 32.5628C28.9413 32.5646 29.1858 32.4825 29.385 32.3296L30.4149 31.2674C30.566 31.0679 30.6429 30.8219 30.6322 30.5719C30.6216 30.3218 30.5241 30.0833 30.3566 29.8974C30.3469 29.8877 28.3065 27.9575 28.3065 27.9575C28.2269 27.8783 28.1689 27.78 28.1381 27.672C28.1074 27.564 28.1049 27.45 28.1309 27.3407C28.1569 27.2315 28.2105 27.1308 28.2867 27.0482C28.3628 26.9657 28.4588 26.9041 28.5656 26.8693C29.3978 26.6236 30.2807 26.6065 31.1218 26.8196C31.9628 27.0327 32.7311 27.4683 33.3458 28.0805C33.9161 28.6061 34.3404 29.2705 34.5771 30.0091C34.8138 30.7476 34.8549 31.5349 34.6963 32.294ZM44.1758 48.3414L45.9215 48.309L47.1359 47.0557L47.1036 45.3165L45.8437 44.1085L44.0981 44.1409L42.8836 45.3943L42.916 47.1334L44.1758 48.3414Z" fill="white"/>
</svg>
