<svg width="76" height="76" viewBox="0 0 76 76" fill="none" xmlns="http://www.w3.org/2000/svg">
<rect width="76" height="76" rx="38" fill="#5969FF"/>
<path fill-rule="evenodd" clip-rule="evenodd" d="M53.2975 23.5238H54.2228C54.959 23.5238 55.6651 23.8098 56.1857 24.3188C56.7063 24.8278 56.9988 25.5182 56.9988 26.2381V34.381C56.9988 35.1008 56.7063 35.7912 56.1857 36.3002C55.6651 36.8093 54.959 37.0952 54.2228 37.0952H53.2975C53.0521 37.0952 52.8167 36.9999 52.6432 36.8302C52.4696 36.6606 52.3721 36.4304 52.3721 36.1905V33.4762H49.5962V36.1905C49.5962 36.6704 49.4012 37.1307 49.0541 37.47C48.7071 37.8094 48.2363 38 47.7455 38H40.1125C39.6647 38 39.2316 37.8408 38.8948 37.5521L36.3483 35.3735C36.1498 35.2037 35.9907 34.9943 35.8817 34.7595C35.7727 34.5246 35.7163 34.2697 35.7163 34.0118V31.6667H33.8656V34.381C33.8656 34.6209 33.7682 34.851 33.5946 35.0207C33.4211 35.1904 33.1857 35.2857 32.9403 35.2857H32.015C31.7696 35.2857 31.5342 35.1904 31.3607 35.0207C31.1872 34.851 31.0897 34.6209 31.0897 34.381V26.2381C31.0897 25.9981 31.1872 25.768 31.3607 25.5983C31.5342 25.4287 31.7696 25.3333 32.015 25.3333H32.9403C33.1857 25.3333 33.4211 25.4287 33.5946 25.5983C33.7682 25.768 33.8656 25.9981 33.8656 26.2381V28.9524H35.7163V25.3333C35.7163 24.8534 35.9113 24.3932 36.2583 24.0538C36.6054 23.7145 37.0761 23.5238 37.5669 23.5238H41.2682V21.7143H37.5669C37.3215 21.7143 37.0862 21.619 36.9126 21.4493C36.7391 21.2796 36.6416 21.0495 36.6416 20.8095V19.9048C36.6416 19.6648 36.7391 19.4347 36.9126 19.265C37.0862 19.0953 37.3215 19 37.5669 19H47.7455C47.9909 19 48.2263 19.0953 48.3998 19.265C48.5734 19.4347 48.6708 19.6648 48.6708 19.9048V20.8095C48.6708 21.0495 48.5734 21.2796 48.3998 21.4493C48.2263 21.619 47.9909 21.7143 47.7455 21.7143H44.0442V23.5238H47.7455C48.2363 23.5238 48.7071 23.7145 49.0541 24.0538C49.4012 24.3932 49.5962 24.8534 49.5962 25.3333V27.1429H52.3721V24.4286C52.3721 24.1886 52.4696 23.9585 52.6432 23.7888C52.8167 23.6191 53.0521 23.5238 53.2975 23.5238ZM43.8888 33.9783L45.7394 31.264C45.8324 31.1278 45.8858 30.9694 45.8939 30.8058C45.902 30.6422 45.8646 30.4795 45.7856 30.3351C45.7065 30.1906 45.5889 30.0699 45.4452 29.9857C45.3015 29.9016 45.1371 29.8571 44.9695 29.8571H43.1189V27.1429C43.1189 27.1429 42.6322 27.1293 42.349 27.5464L40.4984 30.2607C40.4056 30.3969 40.3524 30.5552 40.3445 30.7187C40.3365 30.8821 40.374 31.0447 40.453 31.189C40.532 31.3332 40.6495 31.4539 40.7931 31.538C40.9366 31.6221 41.1009 31.6666 41.2682 31.6667H43.1189V34.381C43.1189 34.381 43.6047 34.3945 43.8888 33.9783Z" fill="white"/>
<path fill-rule="evenodd" clip-rule="evenodd" d="M49.637 47.5774C51.3499 47.6875 53.4815 47.8244 55.264 48.4274C57.5609 49.2042 58.7261 50.5886 58.726 52.5439V56.5841C58.726 56.9786 58.406 57.2977 58.0114 57.2977H53.8306C53.673 57.2977 53.5199 57.2457 53.395 57.1496C53.2702 57.0535 53.1806 56.9188 53.1404 56.7665C52.75 55.2893 51.4084 54.2576 49.8771 54.2576C48.347 54.2576 47.0033 55.2893 46.6108 56.7675C46.5703 56.9196 46.4807 57.0541 46.3558 57.15C46.231 57.2459 46.078 57.2978 45.9206 57.2977H29.2757C29.1182 57.2977 28.965 57.2457 28.8402 57.1496C28.7153 57.0535 28.6258 56.9188 28.5855 56.7665C28.195 55.2893 26.8534 54.2576 25.3221 54.2576C23.791 54.2576 22.4494 55.2893 22.0589 56.7665C22.0186 56.9188 21.9291 57.0535 21.8042 57.1496C21.6794 57.2457 21.5262 57.2977 21.3687 57.2977H17.9851C17.8913 57.2977 17.7985 57.2793 17.7119 57.2435C17.6253 57.2076 17.5466 57.1551 17.4803 57.0888C17.4141 57.0225 17.3615 56.9438 17.3257 56.8572C17.2898 56.7706 17.2714 56.6778 17.2715 56.5841V51.0178C17.2715 49.926 17.9545 48.9238 18.9719 48.5243C18.978 48.5223 18.9842 48.5202 18.9893 48.5182C21.2998 47.6801 22.1182 46.0558 22.9846 44.3362L22.9876 44.3302C24.0723 42.173 25.3028 39.7273 29.7406 39.7273H41.3115C43.7969 39.7273 46.1315 43.5094 48.3132 47.4803C48.6894 47.517 49.1349 47.5455 49.6325 47.5771L49.637 47.5774ZM30.7438 51.5011H32.4228C32.612 51.5008 32.7934 51.4256 32.9272 51.2918C33.061 51.158 33.1362 50.9767 33.1364 50.7875C33.1364 50.393 32.8163 50.0729 32.4228 50.0729H30.7438C30.3493 50.0729 30.0302 50.393 30.0302 50.7875C30.0302 50.9767 30.1054 51.1582 30.2392 51.292C30.3731 51.4258 30.5545 51.501 30.7438 51.5011ZM34.8095 48.7443C35.204 48.7443 35.5231 48.4242 35.5231 48.0297L35.523 42.8313C35.5231 42.7376 35.5046 42.6447 35.4688 42.5581C35.433 42.4715 35.3804 42.3928 35.3141 42.3266C35.2479 42.2603 35.1692 42.2077 35.0826 42.1719C34.9959 42.136 34.9031 42.1176 34.8094 42.1177H29.7406C26.6098 42.1177 25.886 43.761 25.1204 45.5023C25.1103 45.5251 25.1002 45.548 25.0901 45.571C25.0077 45.7577 24.9227 45.9504 24.8329 46.1446C24.5852 46.6819 24.3068 47.1825 24.0041 47.6321C23.932 47.7396 23.8905 47.8646 23.8839 47.9939C23.8772 48.1231 23.9057 48.2518 23.9664 48.3661C24.0274 48.4802 24.1182 48.5756 24.2291 48.6422C24.3401 48.7088 24.467 48.7441 24.5964 48.7443H34.8095ZM39.6987 51.5011H41.3778C41.5671 51.501 41.7486 51.4258 41.8824 51.292C42.0162 51.1582 42.0914 50.9767 42.0914 50.7875C42.0914 50.393 41.7724 50.0729 41.3778 50.0729H39.6987C39.3053 50.0729 38.9851 50.393 38.9851 50.7875C38.9853 50.9767 39.0606 51.1581 39.1944 51.2918C39.3281 51.4256 39.5095 51.5009 39.6987 51.5011ZM45.427 48.649C45.5352 48.5868 45.6252 48.4974 45.6882 48.3896C45.7509 48.2818 45.7843 48.1595 45.785 48.0349C45.7857 47.9102 45.7538 47.7875 45.6924 47.6791C43.8297 44.3842 42.4157 42.5298 41.4921 42.1668C41.4085 42.1342 41.3198 42.1179 41.2311 42.1179H37.5692C37.4755 42.1178 37.3826 42.1363 37.296 42.1721C37.2094 42.2079 37.1307 42.2605 37.0644 42.3268C36.9982 42.393 36.9456 42.4717 36.9098 42.5583C36.8739 42.6449 36.8555 42.7378 36.8556 42.8315V48.0297C36.8556 48.4242 37.1746 48.7443 37.5692 48.7443H45.0714C45.1962 48.7441 45.3188 48.7113 45.427 48.649Z" fill="white"/>
</svg>
