<svg width="76" height="76" viewBox="0 0 76 76" fill="none" xmlns="http://www.w3.org/2000/svg">
<rect width="76" height="76" rx="38" fill="#5969FF"/>
<path d="M24.3079 29.8455L31.2161 36.7537C32.7842 35.4993 34.6886 34.6841 36.7862 34.448V24.6709C32.0092 24.9508 27.6719 26.853 24.3079 29.8455ZM22.5906 31.5629C19.3449 35.2114 17.2734 39.9997 17.2734 45.2557C17.2734 45.927 17.8166 46.4702 18.4879 46.4702H25.8558C26.5271 46.4702 27.0703 45.927 27.0703 45.2557C27.0703 42.6799 28.0028 40.3412 29.4987 38.4711L22.5906 31.5629ZM47.3845 35.7593C46.9753 35.4023 46.3823 35.3561 45.9304 35.649L35.3903 42.3725C33.9825 43.2715 33.1428 44.8026 33.1428 46.4702C33.1428 49.1494 35.3215 51.3281 38.0007 51.3281C39.8841 51.3281 41.6133 50.2251 42.4056 48.5185L47.6846 37.1849C47.7954 36.9467 47.8261 36.6791 47.772 36.4221C47.7179 36.1651 47.5819 35.9325 47.3845 35.7593ZM53.4109 31.5629L49.8413 35.1325C50.2908 36.0921 50.3499 37.2153 49.8859 38.2107L48.2889 41.6392C48.7 42.7686 48.9311 43.9825 48.9311 45.2557C48.9311 45.927 49.4743 46.4702 50.1456 46.4702H57.5135C58.1848 46.4702 58.728 45.927 58.728 45.2557C58.728 39.9997 56.6566 35.2114 53.4109 31.5629ZM39.2152 24.6709V34.448C40.2377 34.5631 41.212 34.8205 42.1262 35.1945L44.6247 33.6006C45.6257 32.9519 46.8489 32.8127 48.1228 33.4162L51.6935 29.8455C48.3295 26.853 43.9922 24.9508 39.2152 24.6709Z" fill="white"/>
</svg>
