<svg width="261" height="89" viewBox="0 0 261 89" fill="none" xmlns="http://www.w3.org/2000/svg">
<path d="M106.5 46L117.252 16.624C117.86 15.024 118.852 13.824 120.228 13.024C121.636 12.192 123.22 11.776 124.98 11.776C126.74 11.776 128.308 12.176 129.684 12.976C131.092 13.776 132.1 14.976 132.708 16.576L143.46 46H132.468L130.644 40.144H119.172L117.252 46H106.5ZM121.332 32.224H128.484L125.364 21.424C125.332 21.328 125.284 21.264 125.22 21.232C125.156 21.168 125.076 21.136 124.98 21.136C124.916 21.136 124.852 21.168 124.788 21.232C124.724 21.264 124.676 21.328 124.644 21.424L121.332 32.224ZM159.152 46C157.008 46 155.104 45.552 153.44 44.656C151.776 43.728 150.464 42.48 149.504 40.912C148.544 39.312 148.064 37.504 148.064 35.488V20.512H139.376V12.4H166.928V20.512H158.432V36.016C158.432 36.528 158.608 36.976 158.96 37.36C159.312 37.712 159.744 37.888 160.256 37.888H163.472V46H159.152ZM185.612 46.624C182.956 46.624 180.508 46.192 178.268 45.328C176.06 44.464 174.14 43.248 172.508 41.68C170.908 40.08 169.66 38.224 168.764 36.112C167.868 34 167.42 31.696 167.42 29.2C167.42 26.704 167.868 24.4 168.764 22.288C169.66 20.144 170.908 18.288 172.508 16.72C174.14 15.152 176.06 13.936 178.268 13.072C180.508 12.208 182.956 11.776 185.612 11.776C188.268 11.776 190.7 12.208 192.908 13.072C195.148 13.936 197.068 15.152 198.668 16.72C200.3 18.288 201.564 20.144 202.46 22.288C203.356 24.4 203.804 26.704 203.804 29.2C203.804 31.696 203.356 34 202.46 36.112C201.564 38.224 200.3 40.08 198.668 41.68C197.068 43.248 195.148 44.464 192.908 45.328C190.7 46.192 188.268 46.624 185.612 46.624ZM185.612 38.272C186.796 38.272 187.868 38.048 188.828 37.6C189.788 37.12 190.604 36.464 191.276 35.632C191.948 34.8 192.46 33.84 192.812 32.752C193.164 31.632 193.34 30.448 193.34 29.2C193.34 27.952 193.164 26.784 192.812 25.696C192.46 24.576 191.948 23.6 191.276 22.768C190.604 21.936 189.788 21.296 188.828 20.848C187.868 20.368 186.796 20.128 185.612 20.128C184.428 20.128 183.356 20.368 182.396 20.848C181.436 21.296 180.62 21.936 179.948 22.768C179.276 23.6 178.764 24.576 178.412 25.696C178.06 26.784 177.884 27.952 177.884 29.2C177.884 30.448 178.06 31.632 178.412 32.752C178.764 33.84 179.276 34.8 179.948 35.632C180.62 36.464 181.436 37.12 182.396 37.6C183.356 38.048 184.428 38.272 185.612 38.272ZM232.727 46.624C230.679 46.624 228.743 46.208 226.919 45.376C225.127 44.544 223.671 43.312 222.551 41.68C221.431 40.048 220.871 38.048 220.871 35.68V22.672C220.871 22.256 220.775 21.904 220.583 21.616C220.423 21.296 220.199 21.056 219.911 20.896C219.623 20.736 219.287 20.656 218.903 20.656C218.519 20.656 218.167 20.736 217.847 20.896C217.559 21.056 217.319 21.296 217.127 21.616C216.967 21.904 216.887 22.256 216.887 22.672V46H206.999V22.768C206.999 20.432 207.543 18.448 208.631 16.816C209.751 15.184 211.223 13.936 213.047 13.072C214.871 12.208 216.823 11.776 218.903 11.776C220.983 11.776 222.919 12.208 224.711 13.072C226.503 13.936 227.959 15.184 229.079 16.816C230.199 18.448 230.759 20.432 230.759 22.768V35.776C230.759 36.192 230.855 36.56 231.047 36.88C231.239 37.168 231.479 37.392 231.767 37.552C232.055 37.712 232.359 37.792 232.679 37.792C233.031 37.792 233.367 37.712 233.687 37.552C234.007 37.392 234.263 37.168 234.455 36.88C234.647 36.56 234.743 36.192 234.743 35.776V22.768C234.743 20.432 235.303 18.448 236.423 16.816C237.543 15.184 238.999 13.936 240.791 13.072C242.615 12.208 244.551 11.776 246.599 11.776C248.647 11.776 250.567 12.208 252.359 13.072C254.151 13.936 255.607 15.184 256.727 16.816C257.847 18.448 258.407 20.432 258.407 22.768V46H248.567V22.528C248.567 22.144 248.471 21.824 248.279 21.568C248.087 21.28 247.847 21.056 247.559 20.896C247.271 20.736 246.951 20.656 246.599 20.656C246.247 20.656 245.911 20.736 245.591 20.896C245.271 21.056 245.015 21.28 244.823 21.568C244.663 21.824 244.583 22.144 244.583 22.528V35.68C244.583 38.048 244.007 40.048 242.855 41.68C241.735 43.312 240.279 44.544 238.487 45.376C236.695 46.208 234.775 46.624 232.727 46.624Z" fill="white"/>
<path d="M119.992 70.4504L118.942 67.9656H111.506L110.457 70.4504H106.684L112.335 57.5662H118.225L123.894 70.4504H119.992ZM112.74 65.0943H117.728L115.224 59.2044L112.74 65.0943ZM136.136 57.5662H139.965V64.947C139.965 66.7508 139.32 68.1558 138.032 69.162C136.744 70.1682 134.866 70.6713 132.4 70.6713C129.921 70.6713 128.037 70.1682 126.749 69.162C125.461 68.1558 124.816 66.7508 124.816 64.947V57.5662H128.645V64.5605C128.645 65.4931 128.946 66.2232 129.547 66.7508C130.16 67.2785 131.111 67.5423 132.4 67.5423C134.891 67.5423 136.136 66.5484 136.136 64.5605V57.5662ZM141.956 60.6953V57.5662H156.644V60.6953H151.215V70.4504H147.386V60.6953H141.956ZM159.903 68.9043C158.393 67.7263 157.639 66.0943 157.639 64.0083C157.639 61.9223 158.393 60.2903 159.903 59.1123C161.412 57.9343 163.51 57.3454 166.198 57.3454C168.885 57.3454 170.983 57.9343 172.492 59.1123C174.002 60.2903 174.756 61.9223 174.756 64.0083C174.756 66.0943 174.002 67.7263 172.492 68.9043C170.983 70.0823 168.885 70.6713 166.198 70.6713C163.51 70.6713 161.412 70.0823 159.903 68.9043ZM162.7 61.4315C161.878 62.0696 161.467 62.9285 161.467 64.0083C161.467 65.0882 161.878 65.9532 162.7 66.6036C163.535 67.2417 164.701 67.5607 166.198 67.5607C167.695 67.5607 168.854 67.2417 169.676 66.6036C170.511 65.9532 170.928 65.0882 170.928 64.0083C170.928 62.9285 170.511 62.0696 169.676 61.4315C168.854 60.7811 167.695 60.456 166.198 60.456C164.701 60.456 163.535 60.7811 162.7 61.4315ZM175.749 60.6953V57.5662H190.437V60.6953H185.007V70.4504H181.178V60.6953H175.749ZM202.855 70.4504L198.64 65.8857H196.247V70.4504H192.419V57.5662H196.247H201.585C203.131 57.5662 204.407 57.9221 205.414 58.6338C206.432 59.3455 206.941 60.4192 206.941 61.8548C206.941 64.1494 205.622 65.4685 202.984 65.8121L207.696 70.4504H202.855ZM196.247 60.6216V63.0144H201.401C201.929 63.0144 202.346 62.9162 202.653 62.7199C202.959 62.5236 203.113 62.2352 203.113 61.8548C203.113 61.4744 202.953 61.1738 202.634 60.9529C202.328 60.7321 201.916 60.6216 201.401 60.6216H196.247ZM221.476 70.4504L220.427 67.9656H212.991L211.942 70.4504H208.169L213.819 57.5662H219.709L225.378 70.4504H221.476ZM214.224 65.0943H219.212L216.709 59.2044L214.224 65.0943ZM234.399 57.5662C236.927 57.5662 238.921 58.1245 240.381 59.2412C241.841 60.3578 242.571 61.9469 242.571 64.0083C242.571 66.0698 241.841 67.6589 240.381 68.7755C238.921 69.8921 236.927 70.4504 234.399 70.4504H227.11V57.5662H234.399ZM233.994 67.3214C235.552 67.3214 236.73 67.0392 237.528 66.4747C238.338 65.898 238.743 65.0759 238.743 64.0083C238.743 62.9408 238.338 62.1248 237.528 61.5603C236.73 60.9836 235.552 60.6953 233.994 60.6953H230.938V67.3214H233.994ZM244.923 70.4504V57.5662H258.046V60.548H248.751V62.499H256.003V65.2968H248.751V67.4687H258.396V70.4504H244.923Z" fill="white"/>
<path d="M77.5914 44.2501C85.0164 36.0262 88.0525 27.9323 84.8364 22.4531C80.8234 15.6178 69.9096 16.0967 62.0147 17.7236C61.5608 16.3778 61.0508 15.0509 60.4861 13.7463C61.3297 12.9317 61.9079 11.8887 62.1471 10.7501C62.3862 9.61148 62.2756 8.42862 61.8292 7.35201C61.3828 6.27539 60.6208 5.35367 59.6402 4.70409C58.6596 4.05452 57.5046 3.70643 56.3222 3.70413C55.5678 3.70413 54.8492 3.8564 54.1834 4.11019C51.8209 1.88207 49.2056 0.650879 46.4381 0.650879C40.0044 0.650879 34.3927 7.28578 30.8602 17.7236C22.9719 16.098 12.0555 15.6152 8.03989 22.4531C4.82371 27.9323 7.86121 36.0275 15.2862 44.2514C13.4452 46.2909 11.8742 48.3211 10.6009 50.3072C10.3534 50.276 10.1099 50.233 9.85313 50.233C8.27252 50.2354 6.75736 50.8539 5.63971 51.9529C4.52205 53.052 3.89308 54.5419 3.89062 56.0961C3.89062 58.2123 5.05136 60.05 6.76798 61.0756C6.76004 62.8937 7.16768 64.57 8.03857 66.0524C12.0528 72.8877 22.9759 72.401 30.8602 70.7767C34.3927 81.2145 40.0044 87.8494 46.4381 87.8494C52.8731 87.8494 58.4849 81.2145 62.0161 70.778C66.3308 71.6656 70.439 72.0964 74.6121 71.598C75.7 73.014 77.4074 73.9445 79.3371 73.9445C80.9182 73.9424 82.4339 73.3239 83.5518 72.2246C84.6698 71.1252 85.2988 69.6348 85.3009 68.0801C85.3009 67.3317 85.1447 66.6224 84.8827 65.9639C88.0168 60.4847 84.978 52.4338 77.59 44.2514L77.5914 44.2501ZM46.4381 61.4413C41.14 59.0191 36.0663 56.148 31.2744 52.8607C30.7787 47.1357 30.784 41.3794 31.2903 35.6552C36.0708 32.356 41.14 29.481 46.4381 27.0642C51.7362 29.4806 56.8054 32.3551 61.5859 35.6539C62.1061 41.3895 62.0836 47.349 61.6018 52.8607C56.8099 56.148 51.7362 59.019 46.4381 61.4413ZM61.0049 57.9481C60.6061 60.7079 60.0485 63.4432 59.3346 66.1409C56.594 65.4022 53.8973 64.5141 51.2571 63.4807C54.6083 61.8163 57.8626 59.9684 61.0049 57.9481ZM41.6205 63.4807C38.9799 64.5142 36.2827 65.4023 33.5417 66.1409C32.8278 63.4432 32.2701 60.7079 31.8714 57.9481C35.0142 59.9687 38.2689 61.8158 41.6205 63.4807ZM27.0921 49.8074C24.8672 48.0935 22.7427 46.2572 20.7286 44.3074C22.7395 42.3358 24.8633 40.4786 27.0894 38.7449C26.8841 42.4297 26.885 46.1228 27.0921 49.8074ZM31.9111 30.5326C32.3222 27.7865 32.8913 25.0656 33.6158 22.3828C36.3314 23.1182 39.0036 24.0002 41.6205 25.0248C38.2829 26.6828 35.0415 28.5216 31.9111 30.5326ZM51.2558 25.0235C53.8726 23.9992 56.5449 23.1177 59.2605 22.3828C59.9848 25.0652 60.554 27.7857 60.9652 30.5313C57.8347 28.5204 54.5933 26.6816 51.2558 25.0235ZM65.7881 38.7436C68.0139 40.4777 70.1372 42.3353 72.1477 44.3074C70.1335 46.2575 68.009 48.0942 65.7842 49.8087C65.9933 45.9902 65.9919 42.5166 65.7881 38.7436ZM81.3978 24.4053C83.5353 28.0481 81.1861 34.4319 74.898 41.4468C72.1477 38.7553 68.9461 36.0795 65.3646 33.5078C64.8921 29.1908 64.1417 25.1446 63.1543 21.4692C68.8243 20.3421 78.5231 19.5131 81.3978 24.4053ZM46.4381 4.55529C48.0039 4.55529 49.6053 5.30103 51.1592 6.69231C50.6425 7.56571 50.3674 8.55687 50.3611 9.56726C50.3632 11.1217 50.992 12.612 52.1097 13.7113C53.2274 14.8106 54.7427 15.4293 56.3236 15.4317C56.5036 15.4317 56.6717 15.3939 56.8477 15.3796C57.2911 16.4078 57.7146 17.501 58.1143 18.6554C54.3502 19.6706 50.4114 21.0605 46.4381 22.7811C42.4636 21.0605 38.5261 19.6706 34.7619 18.6554C37.8219 9.82104 42.265 4.55529 46.4381 4.55529ZM11.4797 24.4053C14.3518 19.5118 24.0559 20.3434 29.7233 21.4692C28.7346 25.1446 27.9842 29.1908 27.5117 33.5078C23.9302 36.0808 20.7299 38.7553 17.9796 41.4468C11.6928 34.4319 9.3396 28.0481 11.4797 24.4053ZM11.4784 64.1002C11.0946 63.4455 10.8696 62.6868 10.7875 61.8512C13.6292 61.4087 15.8169 59.0127 15.8169 56.0961C15.8169 54.5474 15.1896 53.1444 14.1877 52.0954C15.3513 50.3489 16.6407 48.6866 18.0458 47.1212C20.7802 49.7905 23.9593 52.4442 27.5117 54.9951C27.9842 59.3108 28.7346 63.357 29.7233 67.0311C24.0811 68.1517 14.3518 68.9963 11.4784 64.1002ZM46.4381 83.945C42.1578 83.945 37.7068 78.743 34.6719 69.8696C38.4639 68.8519 42.4331 67.4554 46.4381 65.7205C50.4431 67.4554 54.4124 68.8519 58.2043 69.8696C55.1694 78.743 50.7184 83.945 46.4381 83.945ZM63.1543 67.0298C64.1417 63.357 64.8921 59.3108 65.3646 54.9951C68.9169 52.4442 72.0961 49.7905 74.8305 47.1212C80.388 53.3696 82.9093 59.1364 81.9233 62.8326C81.1192 62.4419 80.2353 62.2363 79.3384 62.2313C76.1619 62.2313 73.5678 64.7041 73.4183 67.8068C70.0261 68.1022 66.5147 67.6987 63.1543 67.0298Z" fill="white"/>
<path d="M46.435 35.9077C41.7629 35.9077 37.9512 39.6559 37.9512 44.2501C37.9512 48.8443 41.7629 52.5926 46.435 52.5926C51.1203 52.5926 54.9188 48.8443 54.9188 44.2501C54.9188 39.6559 51.1203 35.9077 46.435 35.9077Z" fill="white"/>
<ellipse cx="79.3867" cy="67.7729" rx="7.5" ry="7.375" fill="white"/>
</svg>
