<svg width="20" height="20" viewBox="0 0 20 20" fill="none" xmlns="http://www.w3.org/2000/svg">
<path fill-rule="evenodd" clip-rule="evenodd" d="M3.33301 0H16.6663C17.3297 0 17.9655 0.263331 18.4338 0.732498C18.903 1.20083 19.1663 1.83667 19.1663 2.5V17.5C19.1663 18.1633 18.903 18.7992 18.4338 19.2675C17.9655 19.7367 17.3297 20 16.6663 20H3.33301C2.66967 20 2.03384 19.7367 1.56551 19.2675C1.09634 18.7992 0.833008 18.1633 0.833008 17.5V2.5C0.833008 1.83667 1.09634 1.20083 1.56551 0.732498C2.03384 0.263331 2.66967 0 3.33301 0ZM16.6663 1.66667H3.33301C3.11217 1.66667 2.89967 1.75417 2.74384 1.91083C2.58717 2.06667 2.49967 2.27917 2.49967 2.5V17.5C2.49967 17.7208 2.58717 17.9333 2.74384 18.0892C2.89967 18.2458 3.11217 18.3333 3.33301 18.3333H16.6663C16.8872 18.3333 17.0997 18.2458 17.2555 18.0892C17.4122 17.9333 17.4997 17.7208 17.4997 17.5V2.5C17.4997 2.27917 17.4122 2.06667 17.2555 1.91083C17.0997 1.75417 16.8872 1.66667 16.6663 1.66667ZM5.83301 8.33333H4.99967C4.53967 8.33333 4.16634 7.96 4.16634 7.5C4.16634 7.04 4.53967 6.66667 4.99967 6.66667H5.83301V5.83333C5.83301 5.37333 6.20634 5 6.66634 5C7.12634 5 7.49967 5.37333 7.49967 5.83333V6.66667H8.33301C8.79301 6.66667 9.16634 7.04 9.16634 7.5C9.16634 7.96 8.79301 8.33333 8.33301 8.33333H7.49967V9.16667C7.49967 9.62667 7.12634 10 6.66634 10C6.20634 10 5.83301 9.62667 5.83301 9.16667V8.33333ZM11.6663 13.3333C11.2063 13.3333 10.833 12.96 10.833 12.5C10.833 12.04 11.2063 11.6667 11.6663 11.6667H14.9997C15.4597 11.6667 15.833 12.04 15.833 12.5C15.833 12.96 15.4597 13.3333 14.9997 13.3333H11.6663ZM5.07134 13.3842L4.41051 12.7233C4.08551 12.3983 4.08551 11.87 4.41051 11.545C4.73551 11.2192 5.26384 11.2192 5.58884 11.545L6.24967 12.205L6.91051 11.545C7.23551 11.2192 7.76384 11.2192 8.08884 11.545C8.41384 11.87 8.41384 12.3983 8.08884 12.7233L7.42801 13.3842L8.08884 14.045C8.41384 14.37 8.41384 14.8983 8.08884 15.2233C7.76384 15.5483 7.23551 15.5483 6.91051 15.2233L6.24967 14.5625L5.58884 15.2233C5.26384 15.5483 4.73551 15.5483 4.41051 15.2233C4.08551 14.8983 4.08551 14.37 4.41051 14.045L5.07134 13.3842ZM11.6663 15.4675C11.2063 15.4675 10.833 15.0942 10.833 14.6342C10.833 14.1742 11.2063 13.8008 11.6663 13.8008H14.9997C15.4597 13.8008 15.833 14.1742 15.833 14.6342C15.833 15.0942 15.4597 15.4675 14.9997 15.4675H11.6663ZM11.6663 8.33333C11.2063 8.33333 10.833 7.96 10.833 7.5C10.833 7.04 11.2063 6.66667 11.6663 6.66667H14.9997C15.4597 6.66667 15.833 7.04 15.833 7.5C15.833 7.96 15.4597 8.33333 14.9997 8.33333H11.6663Z" fill="white"/>
</svg>
