<svg width="10" height="15" viewBox="0 0 10 15" fill="none" xmlns="http://www.w3.org/2000/svg">
<path d="M0.5 14.987C1.39104 12.5674 2.28209 10.1477 3.18082 7.70682C2.34936 7.83525 1.53342 7.96127 0.701573 8.08983C0.771198 7.9317 0.833652 7.78842 0.897279 7.64582C1.96238 5.25534 3.02788 2.86512 4.09116 0.473708C4.1205 0.407622 4.15296 0.378191 4.22559 0.372839C4.58779 0.346351 4.94961 0.313576 5.31142 0.282539C5.74351 0.245483 6.17547 0.20749 6.60757 0.170835C6.96664 0.140333 7.32585 0.111972 7.68493 0.0813371C7.97634 0.0564543 8.26774 0.0296987 8.55915 0.00387956C8.58262 0.00187289 8.60609 0.00160534 8.64051 0C7.68675 1.91048 6.73756 3.81241 5.77767 5.73533C7.0231 5.62095 8.25144 5.50818 9.5 5.39353C6.49583 8.60501 3.50482 11.8026 0.51369 15C0.509127 14.9957 0.504563 14.9913 0.5 14.987Z" fill="#7D7D7D"/>
</svg>
