<svg width="22" height="10" viewBox="0 0 22 10" fill="none" xmlns="http://www.w3.org/2000/svg">
<path fill-rule="evenodd" clip-rule="evenodd" d="M16.1573 8.38393C12.4356 8.37604 8.71945 8.36829 5.00417 8.36042C5.12453 7.63207 4.94312 6.9925 4.38433 6.47381C3.9334 6.05487 3.3842 5.86526 2.75477 5.90484C1.50229 5.98369 0.572519 7.12194 0.81441 8.29236C0.737075 8.29236 0.66003 8.29919 0.585312 8.289C0.555075 8.28483 0.518442 8.24838 0.504778 8.21826C0.456807 8.11339 0.411455 8.00679 0.376276 7.89775C0.230618 7.44801 0.128862 6.98833 0.0457119 6.52496C0.0218718 6.39139 -0.00138891 6.25526 6.47548e-05 6.12051C0.00442576 5.74546 0.1559 5.43325 0.474253 5.20463C0.520189 5.17177 0.535597 5.13923 0.535597 5.08484C0.536179 4.79324 0.524839 4.50025 0.54897 4.21004C0.634736 3.17864 0.93768 2.21461 1.56944 1.3608C1.69155 1.19549 1.83227 1.04442 1.99944 0.91651C2.0916 0.846138 2.19743 0.834442 2.30646 0.819857C2.82222 0.751458 3.33681 0.674919 3.85345 0.612882C4.26309 0.563569 4.67448 0.524454 5.08616 0.492505C5.69292 0.445387 6.30026 0.401158 6.90789 0.369459C7.52425 0.33726 8.14206 0.322925 8.759 0.350706C9.20847 0.370959 9.65765 0.39874 10.1054 0.438218C10.5959 0.481502 11.0779 0.577933 11.5547 0.697145C12.5193 0.938513 13.4529 1.26437 14.3617 1.65506C15.0697 1.95927 15.7543 2.30585 16.4219 2.68482C16.6713 2.82651 16.9405 2.93625 17.201 3.06024C17.292 3.10352 17.3868 3.14092 17.4743 3.18987C17.911 3.43401 18.3977 3.55278 18.8719 3.70372C19.5888 3.93189 20.2924 4.1921 20.9602 4.53301C21.203 4.65688 21.4388 4.79207 21.6472 4.96571C21.7775 5.07372 21.8964 5.19155 21.9629 5.34643C21.9853 5.3991 21.9996 5.45909 21.9999 5.5159C22.0034 6.12918 21.9345 6.73402 21.7586 7.32566C21.7562 7.33308 21.7548 7.34094 21.7519 7.348C21.7173 7.42856 21.717 7.49827 21.7507 7.58959C21.8304 7.80537 21.7827 7.943 21.5891 8.05541C21.3614 8.18748 21.1126 8.27338 20.8596 8.34909C20.6721 8.40535 20.4837 8.45883 20.2918 8.51461C20.309 8.39098 20.3258 8.27199 20.3415 8.15298C20.379 7.87274 20.3497 7.59712 20.2613 7.32913C20.1566 7.01242 19.9796 6.73299 19.7333 6.49904C19.4554 6.23511 19.126 6.04887 18.7425 5.96019C18.1854 5.83147 17.6554 5.90023 17.1583 6.17502C16.6829 6.43781 16.3623 6.82373 16.1919 7.32011C16.0811 7.64307 16.055 7.97403 16.1407 8.30844C16.1465 8.33089 16.1506 8.35381 16.1573 8.38393ZM6.23688 0.878893C6.21217 0.878893 6.19385 0.878088 6.17554 0.879005C5.70629 0.904953 5.23618 0.924844 4.76722 0.958766C4.27036 0.994771 3.77466 1.04686 3.27779 1.08623C3.12632 1.09826 3.01846 1.1479 2.94432 1.28462C2.74372 1.65528 2.57073 2.03531 2.45793 2.4392C2.44746 2.47565 2.44484 2.51407 2.43787 2.5568C3.7828 2.73252 5.12686 2.84654 6.47208 2.98267C6.393 2.27599 6.31538 1.58074 6.23688 0.878893ZM2.08986 3.27043C1.78372 2.99623 1.39995 2.89899 1.01036 2.80117C0.880115 3.14578 0.795222 3.49283 0.749577 3.85721C1.29412 3.85885 1.74737 3.69261 2.08986 3.27043ZM21.8155 5.44275C21.7949 5.39899 21.7847 5.3594 21.7609 5.3299C21.7025 5.258 21.6449 5.18346 21.5745 5.12304C21.2963 4.88434 20.9701 4.71523 20.6375 4.55848C20.0677 4.28991 19.4751 4.07358 18.8739 3.87874C18.8373 3.86683 18.8006 3.85571 18.7573 3.84218C18.7637 3.85421 18.7649 3.85827 18.7675 3.86094C19.1702 4.28286 19.6173 4.65491 20.1261 4.95646C20.4686 5.15937 20.8282 5.32548 21.2265 5.40327C21.4161 5.44019 21.6071 5.46545 21.8155 5.44275ZM17.1429 3.88038C17.1435 3.87633 17.1443 3.87227 17.1452 3.86822C17.1359 3.86116 17.1269 3.8533 17.117 3.84691C16.4974 3.44443 15.8639 3.06265 15.2139 2.70624C14.3777 2.24795 13.5183 1.83517 12.6185 1.50271C11.9544 1.25742 11.2767 1.05623 10.5642 0.9928C10.0353 0.945682 9.50531 0.900092 8.97501 0.882034C8.2726 0.85828 7.56931 0.862114 6.86661 0.854113C6.84684 0.85389 6.82707 0.854113 6.80614 0.854113C6.80614 0.880061 6.80439 0.899397 6.80643 0.918372C6.83986 1.20222 6.87388 1.48593 6.90789 1.76966C6.95528 2.16369 7.00325 2.55761 7.04977 2.95178C7.05937 3.0314 7.05762 3.03026 7.14397 3.03754C7.29835 3.05063 7.45215 3.06532 7.60624 3.07943C7.9243 3.10849 8.24236 3.13803 8.56072 3.16684C8.83837 3.19195 9.11601 3.21684 9.39367 3.24104C9.6937 3.26732 9.99374 3.2928 10.2938 3.31836C10.5897 3.34361 10.886 3.36862 11.182 3.39351C11.4881 3.41932 11.7945 3.44465 12.1007 3.47024C12.3621 3.49213 12.6237 3.51447 12.8854 3.53611C13.1409 3.55728 13.3962 3.57767 13.6518 3.59884C13.9093 3.62026 14.1666 3.6426 14.4242 3.66402C14.5696 3.67619 14.715 3.68741 14.8682 3.69955C14.8682 3.65232 14.8664 3.60996 14.8682 3.5677C14.8743 3.43379 14.8725 3.2988 14.8906 3.16625C14.9127 3.00223 15.0339 2.94111 15.1918 3.00756C15.3787 3.08616 15.454 3.24185 15.4706 3.42232C15.4802 3.52639 15.4598 3.63299 15.4526 3.74736C16.0084 3.79112 16.5757 3.83568 17.1429 3.88038ZM1.12578 7.98034C1.07839 7.11157 1.80785 6.25556 2.84984 6.21436C3.86479 6.1743 4.64075 6.8781 4.7271 7.79317C4.81839 8.7627 4.02876 9.62061 3.00131 9.662C2.00031 9.70228 1.14672 8.9544 1.12578 7.98034ZM1.80465 7.94539C1.80407 8.51908 2.25906 8.96607 2.85652 8.96523C3.44904 8.9644 3.91072 8.51283 3.91305 7.9667C3.91595 7.36647 3.42781 6.94825 2.85681 6.94883C2.27506 6.94941 1.80494 7.3937 1.80465 7.94539ZM16.4655 7.93597C16.4434 7.09291 17.1571 6.25437 18.1942 6.21431C19.2138 6.17483 19.9958 6.89185 20.07 7.81976C20.1444 8.75298 19.3862 9.61672 18.3448 9.662C17.3458 9.70534 16.4634 8.94884 16.4655 7.93597ZM18.2706 6.94902C17.6874 6.94672 17.2173 7.39192 17.2144 7.94328C17.2115 8.518 17.686 8.97301 18.2727 8.9669C18.853 8.96079 19.3274 8.5165 19.326 7.98079C19.3245 7.39667 18.8652 6.94775 18.2706 6.94902Z" fill="#7D7D7D"/>
</svg>
