<svg width="10" height="15" viewBox="0 0 10 15" fill="none" xmlns="http://www.w3.org/2000/svg">
<path fill-rule="evenodd" clip-rule="evenodd" d="M3.30883 1.37592C3.30883 1.01538 3.30883 0.668613 3.30913 0.321849C3.30913 0.0996613 3.40806 0 3.628 0C4.54312 0 5.45853 0 6.37365 0C6.58859 0 6.68928 0.100542 6.68958 0.315694C6.68987 0.665097 6.68958 1.0145 6.68958 1.37592H6.78586C7.24901 1.37592 7.71275 1.38354 8.1759 1.37416C8.912 1.35951 9.50294 1.93608 9.49853 2.66595C9.49853 2.68589 9.49853 2.70582 9.49853 2.72604C9.49853 6.36605 9.49794 10.006 9.5 13.6461C9.5 14.052 9.37368 14.3982 9.06835 14.6734C8.84399 14.8751 8.5787 14.9877 8.27896 14.9938C7.83023 15.0035 7.38092 14.9971 6.9322 14.9971C5.22857 14.9971 3.52465 14.9918 1.82103 15C1.16796 15.0029 0.616185 14.5462 0.518432 13.9263C0.504593 13.8389 0.500764 13.7495 0.500764 13.661C0.499881 10.0096 0.499882 6.35784 0.500176 2.70641C0.500176 2.14654 0.746917 1.73412 1.25541 1.48819C1.41706 1.41022 1.59225 1.37533 1.77333 1.37562C2.2512 1.3765 2.72879 1.37592 3.20666 1.37592H3.30883ZM8.27778 13.6012V2.72516C8.27778 2.58681 8.26865 2.57772 8.13203 2.57772C6.03445 2.57772 3.93657 2.57772 1.8387 2.57772C1.70001 2.57772 1.69295 2.58447 1.69295 2.72312C1.69295 6.36546 1.69295 10.0081 1.69295 13.6507C1.69295 13.7885 1.70002 13.7953 1.83958 13.7953H8.0811C8.27778 13.7953 8.27778 13.7953 8.27778 13.6012ZM4.25869 6.36546V6.25202C4.25869 5.63002 4.2584 5.0083 4.25899 4.3863C4.25928 4.19723 4.37705 4.08086 4.55077 4.09463C4.64175 4.10196 4.70182 4.15239 4.75158 4.22537C5.3225 5.06165 5.89459 5.89705 6.46639 6.73274C6.51969 6.81071 6.5718 6.88986 6.62657 6.96695C6.70548 7.07716 6.72049 7.19265 6.65572 7.31342C6.59182 7.43214 6.48377 7.47757 6.3551 7.47875C6.1484 7.4808 5.94141 7.47933 5.72264 7.47933V7.58427C5.72264 8.20627 5.72205 8.82828 5.72323 9.45C5.72353 9.57076 5.69172 9.67013 5.57395 9.72612C5.47443 9.77331 5.3487 9.75191 5.27333 9.67101C5.25389 9.6502 5.23652 9.62704 5.22033 9.60359C4.60142 8.6996 3.98457 7.79385 3.36212 6.89221C3.23581 6.7093 3.28498 6.51085 3.40953 6.43552C3.47695 6.39477 3.56411 6.3722 3.64361 6.36839C3.84412 6.3593 4.04552 6.36546 4.25869 6.36546ZM7.36473 13.0874H2.62632C2.46762 13.0874 2.42198 13.0419 2.42198 12.8825C2.42169 12.3812 2.42169 11.8797 2.42198 11.3782C2.42198 11.2155 2.46261 11.1747 2.62514 11.1747C4.20157 11.1747 5.77829 11.1747 7.35501 11.1747C7.5252 11.1747 7.57672 11.226 7.57672 11.3943C7.57672 11.887 7.57672 12.3798 7.57672 12.8728C7.57672 13.044 7.53403 13.0874 7.36473 13.0874Z" fill="#7D7D7D"/>
</svg>
