<svg width="24" height="16" viewBox="0 0 24 16" fill="none" xmlns="http://www.w3.org/2000/svg">
<path d="M22.2026 0.137939H1.79742C0.804703 0.137939 0 0.942643 0 1.93536V14.0647C0 15.0574 0.804703 15.8622 1.79742 15.8622H22.2026C23.1952 15.8622 24 15.0575 24 14.0647V1.93536C24 0.942643 23.1953 0.137939 22.2026 0.137939Z" fill="#F6F6F6"/>
<path d="M14.2976 4.55621C12.3962 3.28862 9.82809 3.80687 8.56134 5.70493C7.92595 6.65232 8.18423 7.93965 9.13486 8.57345C10.0848 9.20724 11.368 8.94985 12.0018 7.99913C12.6356 7.04846 13.9196 6.79426 14.8695 7.42473C15.821 8.05852 16.0769 9.34585 15.4422 10.2932C16.7098 8.39204 16.1974 5.82385 14.2976 4.55621Z" fill="#FF4B55"/>
<path d="M8.56055 5.70496C7.92516 6.65235 8.18344 7.93968 9.13407 8.57347C10.084 9.20727 11.3672 8.94988 12.001 7.99916C12.6348 7.04849 13.9188 6.79428 14.8687 7.42475C15.8202 8.05855 16.0761 9.34588 15.4414 10.2933C14.1755 12.1979 11.6082 12.7096 9.70678 11.442C7.80713 10.1746 7.293 7.60639 8.56055 5.70496Z" fill="#41479B"/>
<path d="M16.4024 2.99331L17.1541 4.12309C17.1844 4.16868 17.1954 4.22444 17.1847 4.27815C17.174 4.33185 17.1424 4.37912 17.0969 4.40959L16.9064 4.53723C16.8837 4.55237 16.8584 4.5629 16.8317 4.56822C16.805 4.57354 16.7775 4.57354 16.7508 4.56823C16.7242 4.56292 16.6988 4.55239 16.6762 4.53726C16.6535 4.52213 16.6341 4.50269 16.6191 4.48004L15.8665 3.35054C15.8361 3.30489 15.825 3.24905 15.8358 3.19527C15.8465 3.14148 15.8782 3.09417 15.9238 3.06371L16.1153 2.93584C16.138 2.92074 16.1633 2.91025 16.19 2.90497C16.2167 2.89969 16.2441 2.89972 16.2708 2.90506C16.2975 2.91039 16.3228 2.92093 16.3454 2.93608C16.368 2.95122 16.3874 2.97067 16.4024 2.99331ZM17.5621 4.73523L18.3162 5.86431C18.3313 5.88697 18.3419 5.91241 18.3471 5.93915C18.3524 5.96589 18.3524 5.99341 18.347 6.02012C18.3416 6.04684 18.331 6.07223 18.3157 6.09484C18.3005 6.11744 18.281 6.13681 18.2582 6.15184L18.0668 6.27836C18.0212 6.30851 17.9655 6.31938 17.9118 6.30857C17.8582 6.29777 17.8111 6.26617 17.7807 6.2207L17.0271 5.09279C16.9966 5.04717 16.9855 4.99131 16.9962 4.93749C17.0068 4.88368 17.0385 4.83632 17.0841 4.80582L17.2751 4.67814C17.2977 4.66304 17.3231 4.65254 17.3497 4.64723C17.3764 4.64193 17.4038 4.64193 17.4305 4.64723C17.4571 4.65253 17.4825 4.66303 17.505 4.67813C17.5276 4.69323 17.547 4.71263 17.5621 4.73523ZM17.2072 2.45621L19.1211 5.32839C19.1362 5.35099 19.1466 5.37635 19.1519 5.403C19.1572 5.42965 19.1571 5.45708 19.1518 5.48372C19.1465 5.51036 19.136 5.53569 19.1208 5.55826C19.1057 5.58083 19.0863 5.6002 19.0637 5.61526L18.8714 5.74342C18.8257 5.77386 18.7699 5.78491 18.7161 5.77415C18.6622 5.76339 18.6149 5.7317 18.5845 5.68604L16.67 2.81406C16.6549 2.79144 16.6444 2.76607 16.6392 2.7394C16.6339 2.71273 16.6339 2.68529 16.6393 2.65864C16.6446 2.63198 16.6551 2.60664 16.6703 2.58406C16.6854 2.56148 16.7049 2.54211 16.7275 2.52704L16.9204 2.39865C16.9661 2.3683 17.0219 2.35731 17.0757 2.3681C17.1295 2.37889 17.1768 2.41058 17.2072 2.45621ZM18.0098 1.91996L18.7631 3.05195C18.7782 3.07461 18.7887 3.10003 18.7939 3.12674C18.7992 3.15346 18.7991 3.18095 18.7937 3.20763C18.7883 3.23431 18.7776 3.25967 18.7624 3.28224C18.7472 3.30481 18.7277 3.32415 18.7049 3.33915L18.5134 3.46571C18.4677 3.4959 18.412 3.50675 18.3583 3.49591C18.3047 3.48507 18.2575 3.45341 18.2272 3.40787L17.4734 2.27739C17.4429 2.23172 17.4319 2.17584 17.4426 2.12202C17.4534 2.0682 17.4851 2.02087 17.5307 1.99042L17.7229 1.86235C17.7455 1.84728 17.7709 1.83681 17.7975 1.83155C17.8242 1.82629 17.8516 1.82633 17.8783 1.83168C17.9049 1.83703 17.9303 1.84758 17.9528 1.86273C17.9754 1.87788 17.9948 1.89733 18.0098 1.91996ZM19.1703 3.66559L19.9224 4.79523C19.9528 4.84084 19.9638 4.89664 19.9531 4.95038C19.9424 5.00412 19.9107 5.05141 19.8652 5.08187L19.6742 5.20956C19.6516 5.22468 19.6262 5.23519 19.5995 5.24049C19.5728 5.24579 19.5454 5.24578 19.5187 5.24045C19.492 5.23513 19.4666 5.22459 19.444 5.20946C19.4214 5.19432 19.4021 5.17487 19.387 5.15223L18.6349 4.02259C18.6045 3.97698 18.5935 3.92118 18.6042 3.86744C18.6149 3.81371 18.6465 3.76642 18.6921 3.73595L18.8831 3.60826C18.9057 3.59313 18.9311 3.5826 18.9577 3.57729C18.9844 3.57198 19.0119 3.57199 19.0386 3.57731C19.0653 3.58264 19.0906 3.59318 19.1132 3.60832C19.1358 3.62347 19.1552 3.64293 19.1703 3.66559ZM6.22124 9.78048L8.13487 12.6496C8.16531 12.6952 8.17638 12.7511 8.16564 12.8049C8.1549 12.8587 8.12322 12.906 8.07759 12.9364L7.88596 13.0644C7.86336 13.0795 7.838 13.09 7.81134 13.0953C7.78468 13.1006 7.75724 13.1005 7.73059 13.0952C7.70393 13.0899 7.67859 13.0794 7.656 13.0643C7.63341 13.0492 7.61403 13.0297 7.59894 13.0071L5.68532 10.138C5.67024 10.1154 5.65976 10.0901 5.65447 10.0635C5.64919 10.0368 5.64921 10.0094 5.65453 9.98274C5.65985 9.9561 5.67036 9.93077 5.68548 9.90819C5.70059 9.88562 5.72 9.86624 5.7426 9.85117L5.93427 9.7232C5.95687 9.70811 5.98223 9.69762 6.00888 9.69233C6.03554 9.68705 6.06298 9.68706 6.08963 9.69238C6.11628 9.6977 6.14162 9.70822 6.1642 9.72333C6.18678 9.73845 6.20617 9.75787 6.22124 9.78048ZM5.41785 10.3171L6.16916 11.444C6.19957 11.4896 6.21064 11.5454 6.19995 11.5992C6.18925 11.6529 6.15766 11.7002 6.11212 11.7307L5.92152 11.8583C5.89893 11.8734 5.87357 11.884 5.84691 11.8893C5.82024 11.8946 5.79279 11.8946 5.76612 11.8893C5.73945 11.884 5.71409 11.8735 5.69148 11.8584C5.66887 11.8433 5.64947 11.8239 5.63437 11.8013L4.88216 10.6746C4.86707 10.652 4.85658 10.6267 4.85128 10.6C4.84599 10.5734 4.84599 10.5459 4.8513 10.5193C4.85662 10.4926 4.86712 10.4673 4.88223 10.4447C4.89734 10.4221 4.91675 10.4027 4.93935 10.3877L5.13088 10.2598C5.15349 10.2447 5.17884 10.2342 5.2055 10.2289C5.23216 10.2237 5.25959 10.2237 5.28624 10.229C5.31289 10.2343 5.33823 10.2448 5.36081 10.26C5.38339 10.2751 5.40277 10.2945 5.41785 10.3171ZM6.5789 12.0596L7.33105 13.1894C7.36144 13.235 7.37247 13.2908 7.36173 13.3446C7.35099 13.3983 7.31935 13.4456 7.27377 13.4761L7.08262 13.6039C7.06001 13.619 7.03464 13.6295 7.00797 13.6348C6.98129 13.6401 6.95383 13.6401 6.92716 13.6348C6.90049 13.6295 6.87513 13.6189 6.85253 13.6038C6.82994 13.5887 6.81054 13.5692 6.79546 13.5466L6.04284 12.4171C6.01242 12.3714 6.00137 12.3156 6.01211 12.2618C6.02285 12.208 6.05451 12.1607 6.10012 12.1303L6.29174 12.0023C6.31435 11.9872 6.33972 11.9767 6.3664 11.9714C6.39308 11.9661 6.42054 11.9661 6.44721 11.9714C6.47388 11.9767 6.49924 11.9873 6.52184 12.0024C6.54444 12.0176 6.56382 12.037 6.5789 12.0596ZM4.61441 10.8536L6.52682 13.7228C6.55721 13.7684 6.56826 13.8243 6.55755 13.878C6.54684 13.9318 6.51524 13.9791 6.46968 14.0096L6.27857 14.1374C6.25597 14.1525 6.23061 14.163 6.20394 14.1683C6.17728 14.1736 6.14983 14.1736 6.12316 14.1683C6.0965 14.163 6.07114 14.1525 6.04854 14.1373C6.02595 14.1222 6.00655 14.1028 5.99146 14.0802L4.07793 11.2113C4.04749 11.1657 4.03643 11.1098 4.04719 11.056C4.05795 11.0022 4.08965 10.9548 4.1353 10.9244L4.32759 10.7962C4.35019 10.7811 4.37553 10.7707 4.40218 10.7654C4.42882 10.7601 4.45625 10.7602 4.48288 10.7655C4.50952 10.7708 4.53484 10.7813 4.55741 10.7965C4.57998 10.8116 4.59935 10.831 4.61441 10.8536ZM5.6856 5.8645L7.59894 2.99307C7.61402 2.97045 7.6334 2.95101 7.65599 2.93588C7.67858 2.92075 7.70393 2.91022 7.73059 2.9049C7.75725 2.89957 7.78469 2.89955 7.81136 2.90483C7.83803 2.91012 7.86339 2.92061 7.88601 2.9357L8.07759 3.06362C8.1232 3.09408 8.15486 3.14141 8.1656 3.1952C8.17634 3.24899 8.16529 3.30485 8.13487 3.3505L6.22077 6.22032C6.19039 6.26586 6.1432 6.2975 6.08954 6.30832C6.03587 6.31913 5.98011 6.30824 5.93446 6.27803L5.74363 6.1517C5.72093 6.13668 5.70141 6.11733 5.68621 6.09475C5.671 6.07218 5.66039 6.04682 5.655 6.02014C5.64961 5.99346 5.64954 5.96598 5.65479 5.93927C5.66004 5.91256 5.67051 5.88715 5.6856 5.8645ZM4.88184 5.32857L6.79551 2.45659C6.81059 2.43396 6.82998 2.41452 6.85258 2.39939C6.87518 2.38426 6.90054 2.37374 6.92721 2.36842C6.95388 2.3631 6.98134 2.36309 7.00801 2.36839C7.03469 2.37369 7.06005 2.3842 7.08266 2.39931L7.27377 2.52709C7.31934 2.55755 7.35096 2.60485 7.36168 2.6586C7.3724 2.71235 7.36136 2.76816 7.33096 2.81378L5.4178 5.6859C5.40274 5.70853 5.38335 5.72797 5.36077 5.7431C5.33818 5.75824 5.31283 5.76877 5.28617 5.7741C5.25951 5.77943 5.23206 5.77945 5.20539 5.77416C5.17872 5.76887 5.15335 5.75838 5.13074 5.74328L4.93912 5.61536C4.89351 5.58491 4.86185 5.5376 4.85111 5.48382C4.84037 5.43005 4.85142 5.3742 4.88184 5.32857ZM4.0776 4.79495L5.99146 1.9201C6.00654 1.89746 6.02593 1.87802 6.04853 1.86288C6.07113 1.84774 6.09649 1.83721 6.12317 1.83188C6.14984 1.82655 6.17731 1.82653 6.20399 1.83182C6.23067 1.83712 6.25604 1.84762 6.27866 1.86273L6.46977 1.99051C6.51532 2.02096 6.54693 2.06824 6.55767 2.12196C6.56841 2.17569 6.5574 2.23148 6.52705 2.27711L4.61437 5.15237C4.5993 5.175 4.57993 5.19444 4.55735 5.20958C4.53478 5.22472 4.50944 5.23527 4.48278 5.24061C4.45613 5.24596 4.42869 5.246 4.40202 5.24073C4.37535 5.23547 4.34997 5.225 4.32735 5.20993L4.13516 5.08178C4.08951 5.05136 4.05781 5.00406 4.04702 4.95028C4.03622 4.89649 4.04722 4.84062 4.0776 4.79495ZM15.8668 12.6495L16.619 11.5229C16.6341 11.5003 16.6535 11.4808 16.6761 11.4657C16.6987 11.4506 16.7241 11.4401 16.7508 11.4348C16.7774 11.4295 16.8049 11.4295 16.8315 11.4349C16.8582 11.4402 16.8836 11.4507 16.9062 11.4658L17.0968 11.5934C17.1423 11.6239 17.1739 11.6712 17.1846 11.725C17.1952 11.7787 17.1842 11.8345 17.1538 11.8801L16.4024 13.007C16.3874 13.0296 16.368 13.049 16.3454 13.0641C16.3228 13.0793 16.2975 13.0898 16.2708 13.0951C16.2442 13.1004 16.2167 13.1005 16.1901 13.0952C16.1634 13.0899 16.138 13.0794 16.1154 13.0643L15.9239 12.9364C15.9013 12.9213 15.8819 12.9019 15.8668 12.8794C15.8517 12.8568 15.8412 12.8314 15.8359 12.8048C15.8306 12.7782 15.8306 12.7507 15.8359 12.7241C15.8412 12.6974 15.8517 12.6721 15.8668 12.6495ZM17.027 10.9129L17.7804 9.78071C17.7954 9.75808 17.8148 9.73864 17.8374 9.7235C17.86 9.70836 17.8853 9.69782 17.912 9.69248C17.9386 9.68714 17.9661 9.6871 17.9927 9.69237C18.0194 9.69764 18.0448 9.70812 18.0674 9.7232L18.2594 9.85117C18.282 9.86625 18.3014 9.88564 18.3166 9.90823C18.3317 9.93082 18.3422 9.95616 18.3475 9.98282C18.3529 10.0095 18.3529 10.0369 18.3476 10.0636C18.3423 10.0903 18.3318 10.1156 18.3167 10.1382L17.5617 11.2687C17.5313 11.3142 17.4841 11.3458 17.4304 11.3566C17.3767 11.3674 17.321 11.3564 17.2754 11.3262L17.0849 11.2C17.0623 11.185 17.0428 11.1656 17.0276 11.1431C17.0124 11.1205 17.0018 11.0951 16.9964 11.0685C16.991 11.0418 16.991 11.0144 16.9962 10.9877C17.0014 10.961 17.0119 10.9356 17.027 10.9129ZM16.6699 13.189L17.4226 12.0594C17.4377 12.0368 17.457 12.0174 17.4796 12.0023C17.5022 11.9872 17.5275 11.9766 17.5542 11.9713C17.5808 11.966 17.6083 11.9659 17.6349 11.9712C17.6616 11.9765 17.6869 11.9869 17.7096 12.002L17.9019 12.1303C17.9476 12.1608 17.9792 12.2081 17.99 12.2619C18.0008 12.3156 17.9897 12.3715 17.9594 12.4172L17.2071 13.5468C17.1767 13.5925 17.1294 13.6242 17.0756 13.635C17.0218 13.6458 16.9659 13.6348 16.9203 13.6044L16.7274 13.476C16.6817 13.4456 16.65 13.3982 16.6392 13.3444C16.6285 13.2906 16.6395 13.2347 16.6699 13.189ZM17.8313 11.4437L18.5844 10.3167C18.6149 10.2711 18.6622 10.2395 18.716 10.2287C18.7698 10.218 18.8256 10.2291 18.8713 10.2595L19.0635 10.3877C19.0862 10.4027 19.1056 10.4221 19.1207 10.4447C19.1358 10.4673 19.1464 10.4927 19.1517 10.5193C19.157 10.546 19.157 10.5735 19.1517 10.6001C19.1464 10.6268 19.1359 10.6522 19.1208 10.6748L18.3677 11.8018C18.3372 11.8474 18.2899 11.879 18.2361 11.8897C18.1824 11.9004 18.1265 11.8894 18.0809 11.859L17.8886 11.7308C17.8659 11.7157 17.8465 11.6963 17.8314 11.6737C17.8163 11.6511 17.8057 11.6258 17.8004 11.5991C17.7951 11.5724 17.7951 11.545 17.8004 11.5183C17.8057 11.4916 17.8162 11.4663 17.8313 11.4437ZM17.4736 13.7226L18.2271 12.595C18.2575 12.5495 18.3046 12.5179 18.3582 12.5071C18.4118 12.4963 18.4676 12.5072 18.5132 12.5373L18.7047 12.6639C18.7274 12.6789 18.747 12.6983 18.7622 12.7209C18.7774 12.7435 18.788 12.7688 18.7934 12.7955C18.7988 12.8222 18.7989 12.8497 18.7936 12.8765C18.7884 12.9032 18.7779 12.9286 18.7628 12.9513L18.0098 14.0804C17.9794 14.1261 17.9321 14.1577 17.8783 14.1685C17.8244 14.1793 17.7686 14.1682 17.7229 14.1378L17.5308 14.0097C17.5082 13.9946 17.4888 13.9753 17.4736 13.9527C17.4585 13.9301 17.448 13.9047 17.4427 13.878C17.4374 13.8514 17.4374 13.8239 17.4427 13.7973C17.448 13.7706 17.4585 13.7452 17.4736 13.7226ZM18.6353 11.983L19.3869 10.854C19.402 10.8314 19.4214 10.8119 19.444 10.7968C19.4666 10.7816 19.492 10.7711 19.5186 10.7658C19.5453 10.7605 19.5728 10.7605 19.5995 10.7658C19.6261 10.7711 19.6515 10.7816 19.6741 10.7967L19.865 10.9243C19.9106 10.9548 19.9422 11.0021 19.9529 11.0559C19.9636 11.1097 19.9525 11.1655 19.9221 11.2111L19.1698 12.3386C19.1394 12.3841 19.0922 12.4158 19.0385 12.4266C18.9848 12.4374 18.929 12.4265 18.8834 12.3962L18.6931 12.2701C18.6704 12.2551 18.651 12.2357 18.6358 12.2131C18.6206 12.1905 18.61 12.1652 18.6047 12.1385C18.5993 12.1119 18.5992 12.0844 18.6045 12.0577C18.6097 12.031 18.6202 12.0056 18.6353 11.983Z" fill="#464655"/>
</svg>
