<svg width="22" height="14" viewBox="0 0 22 14" fill="none" xmlns="http://www.w3.org/2000/svg">
<path fill-rule="evenodd" clip-rule="evenodd" d="M2.83549 11.2178C2.87949 10.3068 3.27701 9.61326 4.11408 9.2131C4.6491 8.9572 5.20611 8.9583 5.75961 9.16817C6.14767 9.31529 6.46028 9.5648 6.70535 9.89955C6.93788 10.2173 7.07032 10.5735 7.11145 10.9644C7.17899 11.6087 7.00828 12.1824 6.587 12.6747C6.24227 13.0779 5.80317 13.3195 5.27673 13.3952C4.19547 13.5507 3.1932 12.8438 2.91579 11.8063C2.86475 11.6145 2.83417 11.4198 2.83549 11.2178ZM4.98062 10.0165C4.31911 10.0165 3.78211 10.5541 3.78211 11.2161C3.78211 11.8783 4.31911 12.4159 4.98062 12.4159C5.64213 12.4159 6.17913 11.8783 6.17913 11.2161C6.17913 10.5541 5.64213 10.0165 4.98062 10.0165ZM13.8161 11.2178C13.8601 10.3068 14.2576 9.61326 15.0945 9.2131C15.6297 8.9572 16.1867 8.9583 16.74 9.16817C17.1281 9.31529 17.4409 9.5648 17.6858 9.89955C17.9183 10.2173 18.0509 10.5735 18.0919 10.9644C18.1594 11.6087 17.9887 12.1824 17.5676 12.6747C17.2227 13.0779 16.7836 13.3195 16.2571 13.3952C15.1761 13.5507 14.1736 12.8438 13.8964 11.8063C13.8452 11.6145 13.8148 11.4198 13.8161 11.2178ZM15.961 10.0165C15.2997 10.0165 14.7627 10.5541 14.7627 11.2161C14.7627 11.8783 15.2997 12.4159 15.961 12.4159C16.6225 12.4159 17.1595 11.8783 17.1595 11.2161C17.1595 10.5541 16.6225 10.0165 15.961 10.0165ZM22 9.79781C21.9613 9.94272 21.9344 10.0804 21.8878 10.211C21.7697 10.5415 21.5743 10.817 21.2791 11.0148C21.0756 11.1513 20.8494 11.2152 20.6059 11.2156C19.9726 11.2165 19.3394 11.2159 18.7061 11.2159C18.6957 11.2159 18.6854 11.2141 18.6713 11.213C18.6412 10.288 18.2624 9.54432 17.5122 9.00212C17.0053 8.6361 16.432 8.47445 15.8086 8.50771C14.4171 8.58215 13.2516 9.75156 13.2439 11.2108H7.68475C7.65373 10.2823 7.27205 9.53595 6.51418 8.99419C6.01326 8.63588 5.44766 8.47489 4.83389 8.50793C4.11738 8.54647 3.50624 8.83144 3.01214 9.35096C2.52002 9.8685 2.27055 10.4906 2.26241 11.209C2.24965 11.2117 2.23975 11.2156 2.22986 11.2156C1.92825 11.2145 1.62642 11.2163 1.32481 11.2106C1.05796 11.2055 0.824113 11.1033 0.618202 10.9397C0.287775 10.6772 0.0955031 10.3272 0.0433652 9.91497C0.00398684 9.60423 -0.000412338 9.28754 2.76436e-05 8.97327C0.000687616 8.40795 0.00134791 7.84174 0.0306067 7.27707C0.0618454 6.67695 0.112444 6.07705 0.179321 5.47979C0.249278 4.85764 0.333753 4.23638 0.439569 3.61952C0.540325 3.03261 0.676719 2.45165 0.797274 1.86804C0.855132 1.58725 0.961166 1.3287 1.14244 1.10341C1.36309 0.829444 1.63896 0.648855 1.9905 0.597321C2.06574 0.58631 2.14296 0.585651 2.2193 0.585651C7.0305 0.585211 11.8417 0.586752 16.6527 0.583009C17.145 0.582568 17.5263 0.77813 17.8184 1.16309C18.6768 2.29396 19.5337 3.42616 20.3912 4.55769C20.7854 5.07787 21.1775 5.59937 21.5748 6.11713C21.831 6.45121 21.9604 6.82626 21.9633 7.24624C21.9641 7.39467 21.9635 7.54289 21.9635 7.69881H21.8823C21.3979 7.69859 20.9132 7.69705 20.4288 7.69903C20.1035 7.70035 19.8212 7.93423 19.7565 8.25334C19.7458 8.30708 19.7405 8.36302 19.74 8.41786C19.7381 8.63919 19.7365 8.86029 19.7398 9.0814C19.744 9.37519 19.8766 9.59277 20.1373 9.72976C20.2414 9.78459 20.3545 9.79891 20.4704 9.79869C20.9506 9.79803 21.4309 9.79803 21.9111 9.79781H22ZM10.9268 3.57789C10.9268 3.16981 10.921 2.76129 10.9285 2.3532C10.9358 1.95856 10.5928 1.68063 10.2657 1.68481C9.46272 1.69472 8.65953 1.68789 7.85656 1.68833C7.81212 1.68833 7.76681 1.68855 7.72347 1.69692C7.40844 1.75749 7.19351 2.01934 7.19329 2.34549C7.19219 3.16827 7.19241 3.99126 7.19373 4.81404C7.19395 4.87086 7.20121 4.92878 7.21353 4.98427C7.26765 5.22917 7.50546 5.47692 7.868 5.47428C8.66239 5.46878 9.457 5.47274 10.2516 5.47208C10.3086 5.47186 10.3671 5.46966 10.4225 5.45754C10.7178 5.39258 10.925 5.13689 10.9263 4.83452C10.9281 4.41564 10.9268 3.99677 10.9268 3.57789ZM15.9375 5.45182C16.8003 5.45182 17.6631 5.45182 18.5257 5.45204C18.6691 5.45204 18.8048 5.42363 18.9234 5.33928C19.2253 5.12456 19.2877 4.69754 19.0614 4.3945C18.45 3.57525 17.8391 2.75556 17.2249 1.93807C17.0913 1.76035 16.9072 1.66367 16.6824 1.66345C15.5648 1.66169 14.4471 1.66103 13.3293 1.66345C12.9659 1.66433 12.6869 1.95129 12.6865 2.31576C12.6856 3.14294 12.6858 3.97034 12.6871 4.79752C12.6871 4.85434 12.6933 4.9127 12.7076 4.96754C12.7819 5.25537 13.0424 5.4516 13.3493 5.45182C14.2121 5.45226 15.0749 5.45182 15.9375 5.45182ZM4.44758 1.68811C4.0439 1.68811 3.64022 1.68745 3.23653 1.68811C2.86013 1.68921 2.57788 1.97221 2.57744 2.35056C2.57678 3.16915 2.57678 3.98774 2.5781 4.80633C2.5781 4.86535 2.58382 4.92591 2.5979 4.98295C2.66368 5.25163 2.90941 5.47626 3.25193 5.47428C4.04016 5.46922 4.82839 5.47274 5.61661 5.47208C5.67139 5.47186 5.72727 5.46856 5.78095 5.45776C5.92768 5.42825 6.0467 5.35095 6.14415 5.23754C6.26009 5.1032 6.30629 4.9356 6.30827 4.77087C6.31773 3.96307 6.31266 3.15506 6.31223 2.34704C6.31223 2.30475 6.31223 2.26137 6.30431 2.22019C6.24315 1.9035 5.98246 1.68899 5.65841 1.68811C5.25473 1.68745 4.85127 1.68811 4.44758 1.68811ZM13.5523 6.81922C13.6606 6.81922 13.769 6.82186 13.8773 6.81855C14.0066 6.81481 14.1023 6.71791 14.1012 6.59701C14.1006 6.47544 14.0117 6.38338 13.8815 6.3814C13.6606 6.37788 13.4395 6.37788 13.2188 6.38272C13.1737 6.38383 13.1223 6.40386 13.0855 6.43095C13.0083 6.48755 12.9863 6.58335 13.0171 6.671C13.0479 6.75843 13.1273 6.81657 13.2274 6.81878C13.3357 6.8212 13.4439 6.81922 13.5523 6.81922Z" fill="#7D7D7D"/>
</svg>
