<svg width="22" height="8" viewBox="0 0 22 8" fill="none" xmlns="http://www.w3.org/2000/svg">
<path fill-rule="evenodd" clip-rule="evenodd" d="M7.04312 6.9456C7.07675 6.8027 7.12023 6.66578 7.13937 6.52578C7.26344 5.62445 7.00312 4.84646 6.36476 4.20022C5.91833 3.74802 5.36926 3.48248 4.74251 3.39344C3.95805 3.28195 3.22577 3.43506 2.57177 3.89458C1.98618 4.30615 1.61047 4.86678 1.45857 5.56786C1.36348 6.00677 1.3832 6.44574 1.51655 6.87717C1.52177 6.89481 1.52757 6.91222 1.5322 6.92987C1.53394 6.93353 1.53278 6.93788 1.53278 6.95744C1.40754 6.93352 1.28289 6.91803 1.1623 6.88489C0.804566 6.78575 0.504233 6.5959 0.285072 6.29118C0.135486 6.0842 0.054313 5.85058 0.0218447 5.59688C-0.0390334 5.11781 0.0305435 4.65684 0.190566 4.20434C0.268838 3.98402 0.334351 3.75963 0.354064 3.52404C0.375516 3.27423 0.336671 3.03312 0.260718 2.7966C0.226511 2.69212 0.184762 2.59009 0.155773 2.48416C0.139539 2.4249 0.131428 2.35839 0.140124 2.29791C0.165635 2.12401 0.376675 1.96033 0.570906 1.95935C0.89269 1.95766 1.21506 1.95401 1.53626 1.96033C1.82616 1.96585 2.09344 1.88848 2.32652 1.7284C3.11909 1.18617 3.99863 0.85075 4.91818 0.604537C5.54899 0.435519 6.19024 0.319204 6.83787 0.232606C7.69712 0.117741 8.56043 0.0696234 9.42606 0.0703199C10.0232 0.0707843 10.6187 0.106597 11.2118 0.174332C11.7957 0.240848 12.3482 0.411084 12.8897 0.630656C13.6487 0.939032 14.381 1.30272 15.0993 1.69549C15.2385 1.7717 15.3765 1.84977 15.5139 1.92934C15.7342 2.0568 15.9789 2.09865 16.2259 2.12889C17.1692 2.24422 18.1009 2.42148 19.0199 2.66287C19.7046 2.84228 20.3859 3.03213 21.0683 3.21909C21.306 3.28415 21.5118 3.39902 21.6626 3.6017C21.7547 3.72573 21.7959 3.87084 21.8365 4.01548C21.9472 4.40726 22.0116 4.80606 21.9983 5.2145C21.9849 5.63316 21.8933 6.03556 21.7026 6.40801C21.524 6.75528 21.2248 6.93376 20.8346 6.94635C20.5888 6.95431 20.3424 6.94781 20.0913 6.94781C20.1174 6.84693 20.1464 6.75215 20.1661 6.65539C20.2809 6.09169 20.2282 5.54366 19.987 5.02082C19.5985 4.17869 18.9352 3.66119 18.0435 3.44278C17.3901 3.2827 16.7425 3.33395 16.1267 3.61209C15.2762 3.99638 14.7225 4.63989 14.5155 5.5584C14.4152 6.00074 14.4326 6.44406 14.5705 6.87937C14.5763 6.89679 14.5816 6.91443 14.5868 6.93184C14.5879 6.93544 14.5862 6.93979 14.585 6.9456H7.04312ZM14.6767 2.52694C14.6697 2.52189 14.6656 2.51753 14.6604 2.51486C14.1977 2.27544 13.7391 2.02778 13.2718 1.79875C12.699 1.51777 12.1035 1.2921 11.4785 1.15547C10.9474 1.03962 10.4088 0.993939 9.86555 0.991501C9.62551 0.990282 9.38548 0.991269 9.14023 0.991269C9.26314 1.55015 9.3849 2.10277 9.50723 2.65707H14.0905C14.1821 2.65707 14.2737 2.65753 14.3653 2.65417C14.3995 2.65295 14.4349 2.64668 14.4656 2.6331C14.5358 2.6017 14.6036 2.5642 14.6767 2.52694ZM4.70134 1.61011C4.70946 1.62224 4.71468 1.63066 4.7199 1.6389C4.91587 1.92864 5.15531 2.18205 5.38839 2.44063C5.43303 2.49043 5.48928 2.5216 5.55885 2.52479C5.62031 2.5274 5.68061 2.53321 5.74207 2.5364C6.21982 2.56008 6.69756 2.58498 7.17531 2.60628C7.57827 2.62393 7.98122 2.63722 8.38418 2.65173C8.45085 2.65417 8.51753 2.65196 8.58884 2.65196C8.46709 2.11438 8.34591 1.57894 8.22531 1.04519C7.58986 0.990747 5.39477 1.34242 4.70134 1.61011ZM17.4428 3.90125C18.069 3.91071 18.5688 4.08507 18.9839 4.46739C19.3289 4.7854 19.5417 5.17892 19.6031 5.64831C19.6797 6.22849 19.5237 6.74384 19.1468 7.18595C18.8042 7.58835 18.3624 7.82418 17.8377 7.903C17.3814 7.97143 16.9431 7.90926 16.532 7.70275C15.9499 7.41011 15.5585 6.95036 15.4321 6.30517C15.2883 5.5714 15.5145 4.94792 16.067 4.44417C16.3546 4.18252 16.6937 4.02192 17.0712 3.94525C17.2144 3.91623 17.3617 3.91042 17.4428 3.90125ZM17.4208 4.7634C17.3576 4.76973 17.2927 4.77431 17.2283 4.7825C16.6937 4.85099 16.2032 5.30586 16.1905 5.90224C16.1818 6.30273 16.3378 6.62509 16.6532 6.86405C17.146 7.2372 17.8342 7.18932 18.2789 6.78738C18.6476 6.4541 18.7706 5.88872 18.545 5.44806C18.3125 4.99267 17.9235 4.78494 17.4208 4.7634ZM2.2697 5.95372C2.28245 5.33993 2.49987 4.85313 2.92718 4.46449C3.41362 4.02215 3.99226 3.85139 4.64047 3.91791C5.11357 3.96626 5.53276 4.15153 5.87948 4.47946C6.2204 4.80183 6.4355 5.19605 6.4871 5.66642C6.57175 6.43837 6.28533 7.05628 5.6696 7.51481C5.19591 7.86742 4.65495 7.98594 4.06995 7.90392C3.55335 7.83137 3.11967 7.60042 2.77064 7.2159C2.51437 6.93364 2.35608 6.5999 2.29695 6.2217C2.28129 6.12135 2.27607 6.01948 2.2697 5.95372ZM4.2781 4.76607C4.23925 4.76967 4.17025 4.77333 4.10184 4.78348C3.75164 4.83619 3.46929 5.00764 3.26984 5.29762C2.94052 5.77768 3.02226 6.40668 3.45421 6.79945C4.00443 7.30029 4.91355 7.19825 5.33505 6.58516C5.55711 6.26326 5.60813 5.91187 5.46956 5.54598C5.28751 5.06592 4.83528 4.76898 4.2781 4.76607Z" fill="#7D7D7D"/>
</svg>
