<svg width="22" height="12" viewBox="0 0 22 12" fill="none" xmlns="http://www.w3.org/2000/svg">
<path fill-rule="evenodd" clip-rule="evenodd" d="M0.380746 8.63207C0.315188 8.55499 0.257215 8.49288 0.243828 8.40315C0.240265 8.37956 0.226591 8.35771 0.216076 8.33528C0.059278 8.01203 -0.0157014 7.67094 0.00274208 7.31203C0.0183127 7.00603 0.0997284 6.71418 0.232337 6.43786C0.306801 6.28233 0.389652 6.13037 0.463828 5.97438C0.482042 5.93579 0.482501 5.8881 0.487328 5.84399C0.643149 4.39263 1.0396 3.01121 1.69701 1.70744C1.87943 1.3456 2.18706 1.1337 2.58063 1.07359C3.08722 0.996632 3.59663 0.938137 4.10632 0.886141C5.18696 0.775936 6.27145 0.733025 7.35714 0.734923C7.92527 0.735901 8.49357 0.75241 9.06124 0.774727C9.57162 0.794858 10.0818 0.827415 10.5915 0.864111C10.9606 0.890685 11.3288 0.932153 11.6975 0.96862C11.9829 0.997091 12.268 1.02729 12.5531 1.0587C12.7013 1.07503 12.8375 1.12749 12.9599 1.21279C14.0582 1.9802 15.1571 2.74709 16.253 3.51812C16.3608 3.59404 16.4697 3.62786 16.5985 3.62809C17.7139 3.62976 18.7943 3.83683 19.8472 4.1954C20.0796 4.27449 20.3128 4.35668 20.534 4.46188C20.7423 4.5611 20.9039 4.72503 21.0329 4.91938C21.3221 5.35462 21.585 5.80418 21.7706 6.2943C21.913 6.67156 22.0114 7.05837 21.9989 7.46733C21.9879 7.83717 21.8759 8.17538 21.6779 8.48483C21.5776 8.64185 21.427 8.74941 21.2704 8.87077C21.2704 8.82533 21.2699 8.79197 21.2707 8.75861C21.2779 8.41063 21.2508 8.06494 21.1497 7.73133C20.8029 6.58551 20.0708 5.81333 18.9173 5.46293C18.5556 5.35295 18.1824 5.32511 17.8056 5.35916C16.9629 5.43515 16.2629 5.80062 15.7022 6.42682C15.2389 6.94448 14.9629 7.55245 14.8849 8.24612C14.8557 8.50611 14.8442 8.76609 14.8856 9.02607C14.8894 9.04966 14.8942 9.07324 14.8995 9.102H6.75937C6.76798 9.03585 6.78022 8.96855 6.78425 8.90126C6.85009 7.8573 6.5238 6.95944 5.77474 6.22603C5.29136 5.75317 4.70772 5.46678 4.03761 5.3793C2.97564 5.24079 2.07025 5.56888 1.32665 6.33818C0.87803 6.80241 0.595748 7.35804 0.461186 7.98729C0.424126 8.16157 0.412865 8.3416 0.390342 8.51933C0.386263 8.55097 0.384825 8.58318 0.380746 8.63207ZM14.6601 3.52744C14.6328 3.50707 14.6163 3.49391 14.5986 3.48165C13.8988 3.00069 13.199 2.51966 12.498 2.04013C12.4729 2.02287 12.4385 2.01448 12.4073 2.01137C12.1746 1.98739 11.9417 1.96605 11.709 1.94356C11.4396 1.91738 11.1706 1.88862 10.9008 1.86539C10.5968 1.8395 10.2922 1.8177 9.98772 1.79545C9.85844 1.78584 9.72888 1.77934 9.59529 1.77123C9.59816 1.78993 9.59937 1.80356 9.60225 1.81701C9.64034 1.99647 9.67838 2.17576 9.7167 2.35504C9.79381 2.71545 9.87137 3.07569 9.94698 3.43639C9.95491 3.47423 9.96973 3.48982 10.0071 3.48574C10.0212 3.4843 10.0356 3.4862 10.0499 3.48648L14.6019 3.53175C14.617 3.53175 14.6323 3.52962 14.6601 3.52744ZM4.13339 1.81961C4.13339 2.04876 4.13005 2.27256 4.13436 2.49619C4.13867 2.7246 4.15901 2.95128 4.2217 3.17249C4.25715 3.29737 4.32224 3.39589 4.45778 3.42632C4.50111 3.43587 4.54632 3.43972 4.59085 3.44018C6.03852 3.45485 7.48596 3.46894 8.93363 3.48309C8.95276 3.48332 8.97189 3.48309 8.99441 3.48309C8.87111 2.89117 8.74977 2.3088 8.6279 1.72378C7.13094 1.6761 5.64041 1.7197 4.13339 1.81961ZM15.5104 8.68499C15.5374 7.73766 15.8826 7.00315 16.6085 6.46955C17.0822 6.12111 17.6228 5.96294 18.2106 6.00343C18.9221 6.05232 19.5098 6.36004 19.9721 6.90192C20.3987 7.40175 20.6103 7.98441 20.6065 8.64127C20.6019 9.39419 20.3244 10.0361 19.786 10.5584C19.3776 10.9541 18.8864 11.1905 18.3166 11.2469C17.5967 11.3182 16.9645 11.1071 16.4225 10.6337C15.9674 10.2357 15.682 9.7347 15.5666 9.14111C15.534 8.97431 15.5242 8.80233 15.5104 8.68499ZM19.4882 8.69879C19.4791 8.22369 19.3228 7.84925 18.9965 7.55188C18.5191 7.11646 17.8081 7.067 17.2774 7.43569C16.851 7.73191 16.6439 8.15179 16.6394 8.66371C16.6363 9.04908 16.7713 9.39073 17.0332 9.68178C17.4655 10.1609 18.2254 10.2771 18.7743 9.93659C19.2452 9.64439 19.4671 9.21013 19.4882 8.69879ZM6.25329 8.60504C6.24444 9.31079 6.01916 9.91071 5.56192 10.4203C5.17001 10.8575 4.68405 11.1324 4.10661 11.229C3.49206 11.332 2.91319 11.2141 2.3889 10.8759C1.73005 10.4508 1.32808 9.84513 1.19881 9.07093C1.06982 8.29789 1.24696 7.59214 1.72741 6.97267C2.12075 6.46507 2.63883 6.14222 3.27442 6.03846C4.19877 5.88747 4.97035 6.18703 5.59329 6.87776C5.94831 7.27176 6.14918 7.73939 6.22795 8.26165C6.23008 8.27546 6.23198 8.28984 6.23295 8.30422C6.24036 8.41178 6.24755 8.51933 6.25329 8.60504ZM5.131 8.62229C5.12525 8.56593 5.12192 8.47159 5.10394 8.38014C5.08624 8.29098 5.05751 8.20298 5.0266 8.11671C4.79442 7.47078 4.10782 7.08368 3.43529 7.21654C2.81597 7.33906 2.33817 7.87743 2.28812 8.53314C2.25531 8.9628 2.37885 9.343 2.66779 9.6697C3.02643 10.0746 3.63668 10.2409 4.14442 10.0625C4.74438 9.85146 5.13433 9.29698 5.131 8.62229Z" fill="#7D7D7D"/>
</svg>
