<svg width="25" height="25" viewBox="0 0 25 25" fill="none" xmlns="http://www.w3.org/2000/svg">
<path d="M12.8027 0.223969H12.7967C6.19023 0.223969 0.817871 5.59782 0.817871 12.2058C0.817871 14.8268 1.66259 17.2561 3.09891 19.2287L1.60568 23.6799L6.21119 22.2076C8.10582 23.4627 10.3659 24.1876 12.8027 24.1876C19.4092 24.1876 24.7815 18.8123 24.7815 12.2058C24.7815 5.59932 19.4092 0.223969 12.8027 0.223969ZM19.7746 17.1438C19.4856 17.9601 18.3383 18.6371 17.4232 18.8348C16.7971 18.9681 15.9794 19.0744 13.2266 17.9331C9.7054 16.4743 7.43783 12.8963 7.2611 12.6641C7.09186 12.432 5.83826 10.7695 5.83826 9.05009C5.83826 7.33069 6.71144 6.49346 7.0634 6.13401C7.35246 5.83896 7.83024 5.70416 8.28854 5.70416C8.43682 5.70416 8.57012 5.71165 8.68994 5.71764C9.0419 5.73262 9.21863 5.75359 9.45078 6.30924C9.73984 7.00569 10.4438 8.72508 10.5276 8.90181C10.613 9.07854 10.6984 9.31818 10.5786 9.55033C10.4662 9.78997 10.3674 9.8963 10.1907 10.1C10.0139 10.3037 9.84618 10.4595 9.66945 10.6781C9.5077 10.8683 9.32497 11.072 9.52866 11.424C9.73236 11.7685 10.4363 12.9172 11.4727 13.8398C12.8102 15.0305 13.8945 15.4109 14.2825 15.5727C14.5715 15.6925 14.916 15.6641 15.1272 15.4394C15.3953 15.1503 15.7263 14.6711 16.0633 14.1993C16.3029 13.8608 16.6054 13.8189 16.923 13.9387C17.2465 14.051 18.9584 14.8972 19.3103 15.0725C19.6623 15.2492 19.8944 15.3331 19.9798 15.4813C20.0637 15.6296 20.0637 16.3261 19.7746 17.1438Z" fill="white"/>
</svg>
