<svg width="894" height="894" viewBox="0 0 894 894" fill="none" xmlns="http://www.w3.org/2000/svg">
<path fill-rule="evenodd" clip-rule="evenodd" d="M387.47 255.448C406.137 249.678 425.968 246.572 446.517 246.572C483.776 246.572 518.668 256.785 548.544 274.562L535.472 295.303C509.516 280.022 479.273 271.258 447 271.258C428.825 271.258 411.294 274.038 394.808 279.196L387.47 255.448ZM537.015 595.851C587.791 565.258 621.779 509.585 621.779 446.036C621.779 407.938 609.563 372.671 588.838 343.941L607.566 328.059C632.011 361.223 646.464 402.196 646.464 446.517C646.464 518.994 607.822 582.514 550.032 617.581L537.015 595.851ZM278.629 493.055C285.177 516.525 296.508 538.007 311.498 556.39L291.737 573.043C274.319 551.766 261.196 526.836 253.703 499.587L278.629 493.055Z" fill="#EBEBEB"/>
<circle cx="447" cy="447" r="323" stroke="#EBEBEB" stroke-width="8"/>
<path fill-rule="evenodd" clip-rule="evenodd" d="M152.536 496.581C149.776 480.29 148.338 463.549 148.338 446.477C148.338 322.573 224.045 216.208 331.685 171.162L371.391 260.719C298.288 290.473 246.699 362.257 246.699 445.995C246.699 457.84 247.731 469.444 249.71 480.723L152.536 496.581ZM577.306 714.681C537.838 733.961 493.495 744.786 446.646 744.786C362.728 744.786 286.856 710.057 232.63 654.202L304.166 586.217C340.444 623.075 390.896 645.941 446.646 645.941C477.378 645.941 506.501 638.993 532.525 626.583L577.306 714.681Z" fill="#EBEBEB"/>
<path d="M446.646 621.257C543.175 621.257 621.426 543.005 621.426 446.477C621.426 349.948 543.175 271.697 446.646 271.697C350.118 271.697 271.866 349.948 271.866 446.477C271.866 543.005 350.118 621.257 446.646 621.257Z" stroke="#EBEBEB" stroke-width="8" stroke-miterlimit="1.5" stroke-linecap="round" stroke-linejoin="round"/>
<path fill-rule="evenodd" clip-rule="evenodd" d="M367.622 190.804C392.604 183.082 419.143 178.923 446.646 178.923C496.619 178.923 543.409 192.653 583.449 216.542L561.405 248.996C527.676 229.339 488.465 218.076 446.646 218.076C423.579 218.076 401.306 221.502 380.308 227.875L367.622 190.804ZM564.815 641.931C630.871 601.883 675.047 529.298 675.047 446.477C675.047 395.146 658.077 347.746 629.446 309.588L661.283 286.793C694.518 331.377 714.2 386.647 714.2 446.477C714.2 543.315 662.642 628.206 585.502 675.173L564.815 641.931Z" fill="#EBEBEB"/>
<path fill-rule="evenodd" clip-rule="evenodd" d="M239.15 615.059C215.17 586.707 197.118 553.183 186.912 516.411L228.605 506.787C236.619 537.639 250.633 566.08 269.326 590.792L239.15 615.059Z" fill="#E6E6E6"/>
<path fill-rule="evenodd" clip-rule="evenodd" d="M596.62 308.703C587.018 298.258 576.34 288.815 564.763 280.555L619.32 210.478C635.795 222.557 650.959 236.318 664.56 251.507L596.62 308.703Z" fill="#EBEBEB"/>
</svg>
