<svg width="60" height="40" viewBox="0 0 60 40" fill="none" xmlns="http://www.w3.org/2000/svg">
<path d="M55.5064 0.344727H4.49355C2.01176 0.344727 0 2.35648 0 4.83828V35.1617C0 37.6434 2.01176 39.6553 4.49355 39.6553H55.5064C57.9881 39.6553 60 37.6435 60 35.1617V4.83828C60 2.35648 57.9882 0.344727 55.5064 0.344727Z" fill="#FF4B55"/>
<path d="M9.96176 6.49192L10.948 9.44903L14.0652 9.47317C14.4688 9.47622 14.6361 9.99137 14.3114 10.231L11.8038 12.0827L12.744 15.0548C12.8657 15.4397 12.4276 15.7578 12.0993 15.5232L9.56332 13.7104L7.02738 15.5231C6.69902 15.7578 6.26098 15.4394 6.38262 15.0547L7.32281 12.0826L4.81523 10.231C4.49051 9.99126 4.65785 9.47622 5.06145 9.47317L8.17863 9.44903L9.16488 6.49192C9.29262 6.10907 9.83414 6.10907 9.96176 6.49192ZM21.2811 7.22059L21.9884 8.18481L23.1296 7.82786C23.2774 7.78168 23.3989 7.9502 23.3085 8.07571L22.6098 9.04614L23.3019 10.0213C23.3916 10.1475 23.2689 10.3152 23.1214 10.2679L21.9825 9.90336L21.2689 10.863C21.1766 10.9872 20.9791 10.9223 20.9786 10.7676L20.9733 9.57172L19.8401 9.18958C19.6934 9.14001 19.6941 8.93235 19.8411 8.88383L20.9767 8.5093L20.99 7.31352C20.9917 7.15919 21.1896 7.09579 21.2811 7.22059ZM16.9754 4.34598L18.1642 4.47512L18.6714 3.39219C18.7371 3.25204 18.9435 3.27606 18.975 3.42758L19.2195 4.59805L20.4061 4.74571C20.5597 4.76481 20.6006 4.96848 20.4662 5.04547L19.4285 5.63961L19.6548 6.81383C19.6841 6.96594 19.503 7.06766 19.3883 6.96372L18.5025 6.16039L17.4558 6.73836C17.3203 6.81325 17.1674 6.67239 17.2309 6.53118L17.7211 5.44039L16.8478 4.62336C16.735 4.51813 16.8216 4.32934 16.9754 4.34598ZM18.8549 15.9351L18.1478 16.8996L17.0065 16.5426C16.8587 16.4965 16.7372 16.6648 16.8277 16.7905L17.5263 17.7609L16.8342 18.736C16.7446 18.8622 16.8673 19.0299 17.0147 18.9827L18.1535 18.6181L18.8671 19.5778C18.9594 19.702 19.1569 19.6371 19.1575 19.4824L19.1627 18.2865L20.2959 17.9043C20.4427 17.8548 20.442 17.6471 20.2949 17.5986L19.1593 17.2241L19.146 16.0283C19.1441 15.8737 18.9464 15.8102 18.8549 15.9351ZM23.1604 13.2337L21.9715 13.3629L21.4643 12.2799C21.3986 12.1398 21.1923 12.1638 21.1607 12.3153L20.9161 13.4858L19.7295 13.6334C19.5758 13.6525 19.5349 13.8562 19.6693 13.9332L20.707 14.5273L20.4807 15.7016C20.4514 15.8537 20.6325 15.9554 20.7472 15.8515L21.633 15.0481L22.6798 15.6261C22.8152 15.701 22.9682 15.5601 22.9046 15.4189L22.4145 14.3281L23.2877 13.5111C23.4011 13.4059 23.3145 13.2171 23.1604 13.2337Z" fill="#FFE15A"/>
</svg>
