<svg width="60" height="40" viewBox="0 0 60 40" fill="none" xmlns="http://www.w3.org/2000/svg">
<path d="M55.3873 0.344727H4.37441C1.89262 0.344727 -0.119141 2.35648 -0.119141 4.83828V35.1617C-0.119141 37.6434 1.89262 39.6553 4.37441 39.6553H55.3873C57.869 39.6553 59.8809 37.6435 59.8809 35.1617V4.83828C59.8809 2.35648 57.8691 0.344727 55.3873 0.344727Z" fill="white"/>
<path fill-rule="evenodd" clip-rule="evenodd" d="M21.4024 14.2623C24.5693 9.51718 30.9896 8.22167 35.7431 11.3905C40.4759 14.5485 41.7645 20.9354 38.6374 25.6835C38.6265 25.7001 38.6155 25.7167 38.6044 25.7332C35.4397 30.4948 29.0214 31.7741 24.2679 28.6051C19.5379 25.4491 18.2439 19.0675 21.3644 14.3199C21.3769 14.3006 21.3896 14.2815 21.4024 14.2623ZM20.6754 15.9126C20.1792 17.9607 20.9794 20.1958 22.8361 21.4337C25.2109 23.0182 28.419 22.3748 30.0034 19.998C31.5879 17.6213 34.7981 16.9858 37.1727 18.5619C39.0671 19.8238 39.8585 22.1219 39.3009 24.2017C39.8586 22.1218 39.0671 19.8237 37.1728 18.5618C34.7981 16.9857 31.588 17.6212 30.0035 19.9978C28.419 22.3746 25.211 23.0181 22.8362 21.4336C20.9795 20.1957 20.1792 17.9606 20.6754 15.9126Z" fill="#FF4B55"/>
</svg>
