<svg width="60" height="40" viewBox="0 0 60 40" fill="none" xmlns="http://www.w3.org/2000/svg">
<path d="M55.3873 0.344709H4.37441C1.89262 0.344709 -0.119141 2.35647 -0.119141 4.83826V35.1617C-0.119141 37.6434 1.89262 39.6553 4.37441 39.6553H55.3873C57.869 39.6553 59.8809 37.6435 59.8809 35.1617V4.83826C59.8809 2.35647 57.8691 0.344709 55.3873 0.344709Z" fill="white"/>
<path d="M35.7431 11.3905C30.9896 8.22167 24.5693 9.51717 21.4024 14.2623C19.8139 16.6308 20.4596 19.8491 22.8362 21.4336C25.211 23.0181 28.419 22.3746 30.0035 19.9978C31.588 17.6212 34.7981 16.9857 37.1728 18.5618C39.5514 20.1463 40.1912 23.3646 38.6045 25.7331C41.7734 20.98 40.4925 14.5595 35.7431 11.3905Z" fill="#FF4B55"/>
<path d="M21.4024 14.2625C19.8139 16.6309 20.4596 19.8493 22.8361 21.4338C25.2109 23.0182 28.419 22.3748 30.0034 19.998C31.5879 17.6213 34.7981 16.9858 37.1727 18.562C39.5514 20.1464 40.1911 23.3648 38.6044 25.7332C35.4397 30.4948 29.0214 31.7741 24.2679 28.6052C19.5188 25.4364 18.2335 19.0159 21.4024 14.2625Z" fill="#41479B"/>
<path d="M41.0061 7.48331L42.8852 10.3078C42.9611 10.4218 42.9886 10.5612 42.9618 10.6954C42.935 10.8297 42.8561 10.9478 42.7424 11.024L42.2659 11.3431C42.2094 11.381 42.146 11.4073 42.0792 11.4206C42.0125 11.4339 41.9438 11.4339 41.8771 11.4206C41.8104 11.4073 41.747 11.381 41.6904 11.3432C41.6339 11.3054 41.5854 11.2568 41.5477 11.2002L39.6662 8.3764C39.5902 8.26228 39.5626 8.12266 39.5895 7.98821C39.6164 7.85375 39.6955 7.73547 39.8095 7.65933L40.2884 7.33964C40.3449 7.30189 40.4083 7.27565 40.475 7.26244C40.5417 7.24922 40.6104 7.24929 40.677 7.26263C40.7437 7.27598 40.8071 7.30234 40.8636 7.3402C40.92 7.37807 40.9685 7.4267 41.0061 7.48331ZM43.9054 11.8381L45.7906 14.6608C45.8284 14.7175 45.8546 14.7811 45.8678 14.8479C45.881 14.9148 45.8809 14.9836 45.8674 15.0503C45.8539 15.1171 45.8274 15.1806 45.7893 15.2371C45.7513 15.2936 45.7024 15.3421 45.6456 15.3796L45.167 15.6959C45.0529 15.7713 44.9137 15.7985 44.7797 15.7715C44.6456 15.7445 44.5278 15.6655 44.4518 15.5518L42.5677 12.732C42.4915 12.618 42.4637 12.4783 42.4904 12.3438C42.5172 12.2092 42.5962 12.0908 42.7103 12.0146L43.1877 11.6954C43.2442 11.6576 43.3076 11.6314 43.3742 11.6181C43.4409 11.6049 43.5095 11.6049 43.5761 11.6181C43.6427 11.6314 43.7061 11.6576 43.7626 11.6954C43.8191 11.7331 43.8676 11.7816 43.9054 11.8381ZM43.0181 6.14058L47.8028 13.321C47.8405 13.3775 47.8666 13.4409 47.8798 13.5075C47.893 13.5742 47.8929 13.6427 47.8796 13.7093C47.8662 13.7759 47.8399 13.8393 47.8021 13.8957C47.7643 13.9521 47.7157 14.0005 47.6592 14.0382L47.1785 14.3586C47.122 14.3963 47.0586 14.4225 46.992 14.4357C46.9254 14.4489 46.8568 14.4488 46.7902 14.4355C46.7235 14.4221 46.6602 14.3958 46.6038 14.358C46.5473 14.3202 46.4989 14.2717 46.4612 14.2151L41.6749 7.03519C41.6372 6.97865 41.6111 6.91524 41.5979 6.84858C41.5847 6.78191 41.5848 6.71331 41.5981 6.64668C41.6115 6.58005 41.6379 6.51671 41.6757 6.46027C41.7135 6.40384 41.7621 6.35541 41.8187 6.31777L42.3009 5.99679C42.4151 5.92083 42.5548 5.8933 42.6893 5.92026C42.8238 5.94723 42.942 6.02647 43.0181 6.14058ZM45.0246 4.79995L46.9078 7.62992C46.9455 7.68657 46.9717 7.75011 46.9848 7.8169C46.9979 7.88369 46.9977 7.95241 46.9842 8.01912C46.9707 8.08583 46.9441 8.14921 46.9061 8.20564C46.868 8.26206 46.8192 8.31042 46.7624 8.34792L46.2836 8.66433C46.1694 8.73978 46.0301 8.76693 45.896 8.73982C45.7619 8.71272 45.644 8.63357 45.5681 8.51972L43.6835 5.69351C43.6458 5.637 43.6196 5.57361 43.6064 5.50697C43.5933 5.44034 43.5933 5.37175 43.6066 5.30514C43.62 5.23853 43.6463 5.17519 43.6841 5.11875C43.7219 5.06231 43.7704 5.01388 43.827 4.9762L44.3073 4.65605C44.3638 4.61835 44.4273 4.59216 44.4939 4.57899C44.5606 4.56581 44.6292 4.56591 44.6958 4.57928C44.7624 4.59264 44.8258 4.61901 44.8822 4.65688C44.9386 4.69475 44.987 4.74336 45.0246 4.79995ZM47.9257 9.1639L49.806 11.988C49.8819 12.102 49.9095 12.2415 49.8827 12.3759C49.8559 12.5102 49.7769 12.6285 49.663 12.7046L49.1855 13.0238C49.1289 13.0616 49.0655 13.0879 48.9988 13.1012C48.9321 13.1144 48.8634 13.1144 48.7967 13.1011C48.73 13.0878 48.6666 13.0615 48.6101 13.0236C48.5536 12.9857 48.5052 12.9371 48.4675 12.8805L46.5872 10.0564C46.5113 9.94237 46.4837 9.80288 46.5105 9.66854C46.5373 9.53419 46.6163 9.41597 46.7302 9.3398L47.2077 9.02058C47.2642 8.98277 47.3277 8.95648 47.3944 8.94322C47.4611 8.92996 47.5297 8.92999 47.5964 8.9433C47.6631 8.95661 47.7265 8.98295 47.783 9.0208C47.8395 9.05866 47.888 9.10728 47.9257 9.1639ZM15.5531 24.4511L20.3372 31.6238C20.4133 31.7379 20.441 31.8776 20.4141 32.0121C20.3873 32.1466 20.3081 32.2649 20.194 32.341L19.7149 32.6609C19.6584 32.6987 19.595 32.7249 19.5284 32.7381C19.4617 32.7513 19.3931 32.7513 19.3265 32.738C19.2599 32.7247 19.1965 32.6984 19.14 32.6606C19.0836 32.6228 19.0351 32.5743 18.9974 32.5177L14.2133 25.345C14.1372 25.2309 14.1095 25.0913 14.1364 24.9568C14.1633 24.8223 14.2424 24.704 14.3565 24.6278L14.8356 24.3079C14.9497 24.2318 15.0895 24.2041 15.224 24.2309C15.3586 24.2578 15.477 24.337 15.5531 24.4511ZM13.5447 25.7928L15.4229 28.6101C15.499 28.7241 15.5266 28.8636 15.4999 28.998C15.4732 29.1324 15.3942 29.2506 15.2803 29.3268L14.8038 29.6458C14.7473 29.6836 14.684 29.7099 14.6173 29.7232C14.5506 29.7365 14.482 29.7365 14.4153 29.7233C14.3487 29.7101 14.2852 29.6838 14.2287 29.646C14.1722 29.6083 14.1237 29.5597 14.0859 29.5032L12.2054 26.6866C12.1677 26.6301 12.1415 26.5667 12.1282 26.5001C12.115 26.4335 12.115 26.3649 12.1283 26.2983C12.1416 26.2316 12.1678 26.1683 12.2056 26.1118C12.2434 26.0554 12.2919 26.0069 12.3484 25.9692L12.8272 25.6495C12.8837 25.6118 12.9471 25.5856 13.0138 25.5724C13.0804 25.5592 13.149 25.5592 13.2156 25.5725C13.2823 25.5858 13.3456 25.6122 13.4021 25.6499C13.4585 25.6877 13.507 25.7363 13.5447 25.7928ZM16.4473 30.1491L18.3277 32.9736C18.4036 33.0876 18.4312 33.2272 18.4044 33.3615C18.3775 33.4959 18.2984 33.6141 18.1845 33.6902L17.7066 34.0096C17.6501 34.0474 17.5866 34.0737 17.52 34.087C17.4533 34.1002 17.3846 34.1002 17.318 34.0869C17.2513 34.0736 17.1879 34.0473 17.1314 34.0095C17.0749 33.9717 17.0264 33.9231 16.9887 33.8666L15.1071 31.0427C15.0311 30.9286 15.0035 30.789 15.0303 30.6545C15.0572 30.5201 15.1363 30.4018 15.2503 30.3256L15.7294 30.0057C15.7859 29.9679 15.8494 29.9417 15.916 29.9284C15.9827 29.9152 16.0514 29.9153 16.1181 29.9286C16.1847 29.9419 16.2481 29.9682 16.3046 30.0061C16.3611 30.0439 16.4096 30.0925 16.4473 30.1491ZM11.5361 27.134L16.3171 34.3071C16.3931 34.4211 16.4207 34.5607 16.3939 34.6951C16.3671 34.8295 16.2881 34.9478 16.1742 35.024L15.6965 35.3435C15.64 35.3813 15.5766 35.4075 15.5099 35.4208C15.4432 35.4341 15.3746 35.4341 15.3079 35.4208C15.2413 35.4075 15.1779 35.3812 15.1214 35.3434C15.0649 35.3056 15.0164 35.2571 14.9787 35.2005L10.1949 28.0284C10.1187 27.9142 10.0911 27.7745 10.118 27.64C10.1449 27.5054 10.2241 27.3871 10.3383 27.311L10.819 26.9906C10.8755 26.9529 10.9389 26.9267 11.0055 26.9136C11.0721 26.9004 11.1406 26.9004 11.2072 26.9138C11.2738 26.9271 11.3371 26.9534 11.3936 26.9912C11.45 27.029 11.4984 27.0775 11.5361 27.134ZM14.214 14.6613L18.9974 7.48273C19.0351 7.42616 19.0835 7.37758 19.14 7.33976C19.1965 7.30193 19.2598 7.2756 19.3265 7.26228C19.3931 7.24896 19.4618 7.24891 19.5284 7.26212C19.5951 7.27533 19.6585 7.30156 19.715 7.33929L20.194 7.65909C20.308 7.73525 20.3872 7.85357 20.414 7.98805C20.4409 8.12253 20.4132 8.26217 20.3372 8.37628L15.552 15.5509C15.476 15.6647 15.358 15.7438 15.2239 15.7708C15.0897 15.7979 14.9503 15.7706 14.8362 15.6951L14.3591 15.3793C14.3024 15.3417 14.2536 15.2934 14.2155 15.2369C14.1775 15.1805 14.151 15.1171 14.1375 15.0504C14.1241 14.9837 14.1239 14.915 14.137 14.8482C14.1501 14.7814 14.1763 14.7179 14.214 14.6613ZM12.2046 13.3215L16.9888 6.14152C17.0265 6.08494 17.075 6.03635 17.1315 5.99853C17.188 5.9607 17.2514 5.93439 17.3181 5.92109C17.3847 5.90779 17.4534 5.90776 17.5201 5.92101C17.5867 5.93427 17.6502 5.96053 17.7067 5.99831L18.1845 6.31777C18.2984 6.39391 18.3774 6.51216 18.4042 6.64655C18.431 6.78093 18.4034 6.92045 18.3274 7.03448L13.5445 14.2148C13.5069 14.2714 13.4584 14.32 13.4019 14.3578C13.3455 14.3956 13.2821 14.422 13.2154 14.4353C13.1488 14.4486 13.0802 14.4487 13.0135 14.4354C12.9468 14.4222 12.8834 14.396 12.8269 14.3582L12.3478 14.0384C12.2338 13.9623 12.1547 13.844 12.1278 13.7096C12.1009 13.5752 12.1286 13.4356 12.2046 13.3215ZM10.194 11.9874L14.9787 4.80031C15.0164 4.74371 15.0649 4.69509 15.1214 4.65724C15.1779 4.6194 15.2413 4.59306 15.3079 4.57974C15.3746 4.56642 15.4433 4.56637 15.51 4.57961C15.5767 4.59284 15.6401 4.6191 15.6967 4.65687L16.1745 4.97632C16.2884 5.05243 16.3674 5.17062 16.3942 5.30495C16.4211 5.43927 16.3936 5.57877 16.3177 5.69281L11.5359 12.881C11.4983 12.9376 11.4499 12.9862 11.3934 13.024C11.337 13.0619 11.2736 13.0883 11.207 13.1016C11.1404 13.115 11.0717 13.1151 11.0051 13.1019C10.9384 13.0887 10.875 13.0626 10.8184 13.0249L10.3377 12.7045C10.2236 12.6284 10.1444 12.5101 10.1175 12.3757C10.0906 12.2412 10.1181 12.1016 10.194 11.9874ZM39.667 31.6238L41.5475 28.8072C41.5853 28.7507 41.6338 28.7022 41.6903 28.6644C41.7469 28.6266 41.8103 28.6004 41.8769 28.5871C41.9436 28.5739 42.0122 28.5739 42.0789 28.5872C42.1456 28.6005 42.2089 28.6268 42.2654 28.6646L42.7419 28.9837C42.8558 29.0599 42.9347 29.1782 42.9615 29.3126C42.9882 29.4469 42.9605 29.5864 42.8845 29.7004L41.0063 32.5176C40.9686 32.5741 40.9201 32.6227 40.8636 32.6605C40.8072 32.6983 40.7438 32.7246 40.6772 32.7379C40.6105 32.7512 40.5419 32.7513 40.4753 32.7381C40.4086 32.7249 40.3452 32.6987 40.2887 32.6609L39.8099 32.3412C39.6958 32.2651 39.6167 32.1467 39.5899 32.0121C39.5631 31.8776 39.5909 31.7379 39.667 31.6238ZM42.5674 27.2823L44.451 24.4517C44.4887 24.3951 44.5371 24.3466 44.5935 24.3087C44.65 24.2709 44.7133 24.2445 44.78 24.2312C44.8466 24.2178 44.9152 24.2177 44.9819 24.2309C45.0485 24.2441 45.112 24.2702 45.1685 24.3079L45.6485 24.6278C45.7051 24.6655 45.7536 24.714 45.7914 24.7705C45.8292 24.827 45.8555 24.8903 45.8689 24.957C45.8822 25.0236 45.8822 25.0922 45.869 25.1589C45.8558 25.2256 45.8296 25.289 45.7918 25.3455L43.9043 28.1716C43.8283 28.2854 43.7103 28.3645 43.5761 28.3915C43.4419 28.4184 43.3025 28.3911 43.1884 28.3154L42.7124 27.9999C42.6557 27.9624 42.607 27.914 42.569 27.8576C42.531 27.8012 42.5046 27.7378 42.4911 27.6711C42.4776 27.6045 42.4774 27.5358 42.4905 27.4691C42.5036 27.4024 42.5298 27.3389 42.5674 27.2823ZM41.6748 32.9725L43.5565 30.1486C43.5942 30.092 43.6426 30.0434 43.6991 30.0056C43.7555 29.9678 43.8188 29.9415 43.8855 29.9282C43.9521 29.9148 44.0207 29.9147 44.0873 29.9279C44.154 29.9411 44.2174 29.9673 44.2739 30.005L44.7549 30.3257C44.8689 30.4018 44.9481 30.5201 44.975 30.6546C45.0019 30.789 44.9744 30.9287 44.8984 31.0428L43.0179 33.867C42.9419 33.9812 42.8236 34.0605 42.6891 34.0875C42.5546 34.1145 42.4149 34.0869 42.3007 34.0109L41.8185 33.69C41.7043 33.6138 41.6251 33.4955 41.5981 33.361C41.5712 33.2265 41.5988 33.0867 41.6748 32.9725ZM44.5784 28.6091L46.4611 25.7916C46.5373 25.6777 46.6556 25.5986 46.7901 25.5718C46.9245 25.545 47.0641 25.5726 47.1782 25.6487L47.6589 25.9691C47.7154 26.0068 47.764 26.0552 47.8018 26.1117C47.8396 26.1682 47.8659 26.2316 47.8792 26.2982C47.8925 26.3649 47.8925 26.4335 47.8792 26.5002C47.866 26.5668 47.8397 26.6302 47.802 26.6867L45.9193 29.5041C45.8432 29.6181 45.7249 29.6972 45.5905 29.724C45.456 29.7508 45.3164 29.7231 45.2024 29.6471L44.7216 29.3267C44.665 29.2891 44.6164 29.2406 44.5785 29.1841C44.5407 29.1276 44.5144 29.0643 44.5011 28.9976C44.4878 28.9309 44.4877 28.8623 44.501 28.7956C44.5143 28.729 44.5406 28.6656 44.5784 28.6091ZM43.684 34.3065L45.5678 31.4874C45.6437 31.3738 45.7616 31.2948 45.8956 31.2678C46.0297 31.2408 46.1689 31.2679 46.283 31.3433L46.7618 31.6597C46.8186 31.6972 46.8674 31.7456 46.9055 31.8021C46.9436 31.8586 46.9701 31.922 46.9836 31.9888C46.9971 32.0555 46.9972 32.1243 46.9841 32.1911C46.971 32.2579 46.9448 32.3215 46.907 32.3782L45.0246 35.201C44.9485 35.3151 44.8302 35.3943 44.6957 35.4212C44.5611 35.4481 44.4215 35.4205 44.3073 35.3444L43.827 35.0243C43.7704 34.9865 43.7219 34.938 43.6841 34.8815C43.6463 34.825 43.62 34.7617 43.6067 34.695C43.5934 34.6283 43.5934 34.5597 43.6067 34.493C43.6199 34.4264 43.6462 34.363 43.684 34.3065ZM46.5882 29.9574L48.4674 27.135C48.505 27.0784 48.5535 27.0297 48.61 26.9919C48.6665 26.954 48.7299 26.9277 48.7966 26.9144C48.8633 26.9011 48.932 26.9011 48.9987 26.9143C49.0654 26.9276 49.1288 26.9538 49.1854 26.9916L49.6625 27.3106C49.7765 27.3868 49.8555 27.5052 49.8823 27.6396C49.9091 27.7741 49.8814 27.9136 49.8053 28.0277L47.9245 30.8464C47.8486 30.9603 47.7305 31.0394 47.5963 31.0664C47.4621 31.0934 47.3226 31.0661 47.2085 30.9904L46.7327 30.6752C46.6761 30.6376 46.6274 30.5892 46.5894 30.5327C46.5515 30.4763 46.5251 30.4129 46.5117 30.3463C46.4982 30.2796 46.4981 30.2109 46.5112 30.1442C46.5244 30.0775 46.5505 30.014 46.5882 29.9574Z" fill="#464655"/>
</svg>
