<svg width="15" height="12" viewBox="0 0 15 12" fill="none" xmlns="http://www.w3.org/2000/svg">
<path d="M14.2306 6.89091V8.25345C14.2291 8.69211 14.0678 9.1152 13.7769 9.44349V10.9785C13.7769 11.2196 13.6811 11.4507 13.5107 11.6212C13.3402 11.7916 13.1091 11.8874 12.868 11.8874H11.9592C11.7182 11.8874 11.487 11.7916 11.3166 11.6212C11.1461 11.4507 11.0504 11.2196 11.0504 10.9785V10.0711H3.78399V10.98C3.78399 11.221 3.68824 11.4522 3.5178 11.6226C3.34736 11.7931 3.11619 11.8888 2.87515 11.8888H1.96776C1.72672 11.8888 1.49555 11.7931 1.32511 11.6226C1.15467 11.4522 1.05892 11.221 1.05892 10.98V9.44494C0.767641 9.11628 0.606317 8.69261 0.605225 8.25345V6.89091C0.605906 6.52308 0.718434 6.16416 0.927876 5.86177C1.13732 5.55939 1.43377 5.32785 1.77787 5.19789L2.09677 4.40066L2.66207 2.98595C2.89632 2.39461 3.30334 1.8876 3.83005 1.53103C4.35675 1.17447 4.97868 0.98491 5.61472 0.987079H9.22108C9.85688 0.985201 10.4785 1.1749 11.0049 1.53144C11.5313 1.88799 11.9381 2.39484 12.1723 2.98595L12.7376 4.40066L13.0565 5.19789C13.401 5.32745 13.6978 5.55884 13.9076 5.86128C14.1173 6.16372 14.23 6.52286 14.2306 6.89091ZM4.23913 7.79541C4.23913 7.25184 3.42161 6.43722 2.8766 6.43722C2.75552 6.42961 2.63421 6.44781 2.52069 6.49061C2.40717 6.53341 2.30404 6.59983 2.21812 6.68548C2.1322 6.77112 2.06545 6.87404 2.02229 6.98742C1.97913 7.1008 1.96054 7.22206 1.96776 7.34316C1.96054 7.46426 1.97913 7.58552 2.02229 7.6989C2.06545 7.81228 2.1322 7.9152 2.21812 8.00084C2.30404 8.08649 2.40717 8.15291 2.52069 8.19571C2.63421 8.23851 2.75552 8.25671 2.8766 8.2491C3.42161 8.24765 4.23913 8.33897 4.23913 7.79541ZM3.78399 5.07468H11.0518L10.4865 3.65997C10.3852 3.40716 10.2105 3.19047 9.98502 3.03779C9.7595 2.88512 9.49343 2.80345 9.22108 2.80331H5.61472C5.34233 2.80325 5.07617 2.88484 4.85061 3.03754C4.62505 3.19024 4.45043 3.40705 4.3493 3.65997L3.78399 5.07468ZM12.868 7.34316C12.8753 7.22206 12.8567 7.1008 12.8135 6.98742C12.7704 6.87404 12.7036 6.77112 12.6177 6.68548C12.5318 6.59983 12.4286 6.53341 12.3151 6.49061C12.2016 6.44781 12.0803 6.42961 11.9592 6.43722C11.4142 6.43722 10.5967 7.25184 10.5967 7.79541C10.5967 8.33897 11.4142 8.24765 11.9592 8.24765C12.0802 8.25524 12.2013 8.23707 12.3147 8.19436C12.4282 8.15165 12.5312 8.08536 12.6171 7.99987C12.703 7.91439 12.7698 7.81165 12.813 7.69844C12.8563 7.58524 12.875 7.46414 12.868 7.34316Z" fill="#5969FF"/>
</svg>
