<svg width="22" height="22" viewBox="0 0 22 22" fill="none" xmlns="http://www.w3.org/2000/svg">
<path d="M0.659992 21.34C0.868987 21.5492 1.11717 21.7152 1.39036 21.8285C1.66354 21.9417 1.95637 22 2.2521 22C2.54783 22 2.84066 21.9417 3.11384 21.8285C3.38703 21.7152 3.63521 21.5492 3.84421 21.34L11.0003 14.184L18.1563 21.34C18.5786 21.7623 19.1513 21.9995 19.7484 21.9995C20.3456 21.9995 20.9183 21.7623 21.3405 21.34C21.7628 20.9178 22 20.3451 22 19.7479C22 19.1507 21.7628 18.578 21.3405 18.1558L14.1845 10.9997L21.3405 3.84369C21.7628 3.42144 22 2.84874 22 2.25158C22 1.65443 21.7628 1.08173 21.3405 0.659473C20.9183 0.237219 20.3456 4.44916e-09 19.7484 0C19.1513 -4.44916e-09 18.5786 0.237219 18.1563 0.659473L11.0003 7.81552L3.84421 0.659473C3.63513 0.450394 3.38692 0.284544 3.11374 0.171392C2.84057 0.0582389 2.54778 0 2.2521 0C1.95642 0 1.66363 0.0582389 1.39046 0.171392C1.11728 0.284544 0.86907 0.450394 0.659992 0.659473C0.237738 1.08173 0.000518815 1.65443 0.000518815 2.25158C0.000518815 2.54726 0.0587577 2.84005 0.17191 3.11322C0.285063 3.3864 0.450913 3.63461 0.659992 3.84369L7.81604 10.9997L0.659992 18.1558C0.450764 18.3648 0.284782 18.613 0.171536 18.8862C0.0582895 19.1593 0 19.4522 0 19.7479C0 20.0436 0.0582895 20.3365 0.171536 20.6096C0.284782 20.8828 0.450764 21.131 0.659992 21.34Z" fill="white"/>
</svg>
