<svg width="52" height="48" viewBox="0 0 52 48" fill="none" xmlns="http://www.w3.org/2000/svg">
<path d="M3.18151 2.28818C5.3547 1.01486 8.51329 0.166687 12.0148 0.166687C15.5164 0.166687 18.6776 1.01486 20.8508 2.28818C23.0241 3.56178 24.0322 5.11346 24.0322 6.44484C24.0322 7.77615 23.0241 9.32531 20.8508 10.5986C18.6776 11.8722 15.5164 12.7231 12.0148 12.7231C8.51329 12.7231 5.3547 11.8722 3.18151 10.5986C1.00827 9.32531 0 7.77601 0 6.44484C0 5.1136 1.00827 3.56178 3.18151 2.28818Z" fill="#5969FF"/>
<path d="M0 18.1502V11.8393C0.604618 12.3918 1.28115 12.8921 2.01849 13.3241C4.66493 14.8746 8.16193 15.7699 12.0148 15.7699C15.8677 15.7699 19.3673 14.8746 22.0137 13.3241C22.7511 12.8921 23.4275 12.3918 24.0322 11.8393V18.1502C24.0322 19.4815 23.0241 21.0307 20.8508 22.304C18.6776 23.5774 15.5164 24.4254 12.0148 24.4254C8.51329 24.4254 5.3547 23.5774 3.18151 22.304C1.00827 21.0306 0 19.4815 0 18.1502Z" fill="#5969FF"/>
<path d="M0 23.5417C0.604736 24.0944 1.28103 24.5944 2.01849 25.0265C4.66493 26.5771 8.16193 27.4723 12.0148 27.4723C15.8677 27.4723 19.3673 26.5773 22.0137 25.0265C22.7512 24.5944 23.4275 24.0944 24.0322 23.5417V29.8675C24.0251 31.1955 23.0161 32.7375 20.8508 34.0063C18.6776 35.2797 15.5164 36.1308 12.0148 36.1308C8.51329 36.1308 5.3547 35.2796 3.18151 34.0063C1.01607 32.7376 0.00709068 31.1955 0 29.8675V23.5417Z" fill="#5969FF"/>
<path d="M0 41.5551V35.2472C0.604618 35.7998 1.28115 36.2998 2.01849 36.7319C4.66493 38.2825 8.16193 39.1777 12.0148 39.1777C15.8677 39.1777 19.3673 38.2825 22.0137 36.7319C22.7511 36.2998 23.4275 35.7998 24.0322 35.2472V41.5641C24.0257 42.8934 23.0192 44.4411 20.8508 45.7118C18.6776 46.9852 15.5164 47.8333 12.0148 47.8333C8.51329 47.8333 5.3547 46.9852 3.18151 45.7118C1.00827 44.4384 0 42.8865 0 41.5551Z" fill="#5969FF"/>
<path d="M31.1492 13.9936C33.3224 12.7203 36.4836 11.8691 39.9852 11.8691C43.4867 11.8691 46.6453 12.7203 48.8185 13.9936C50.9917 15.2671 52 16.819 52 18.1503C52 19.4816 50.9917 21.0308 48.8185 22.304C46.6453 23.5775 43.4867 24.4256 39.9852 24.4256C36.4836 24.4256 33.3224 23.5775 31.1492 22.304C28.9759 21.0306 27.9678 19.4816 27.9678 18.1503C27.9678 16.819 28.9759 15.2671 31.1492 13.9936Z" fill="#5969FF"/>
<path d="M27.9678 29.8528V23.5418C28.5725 24.0945 29.2488 24.5946 29.9863 25.0266C32.6327 26.5772 36.1323 27.4724 39.9852 27.4724C43.8381 27.4724 47.3351 26.5772 49.9815 25.0266C50.719 24.5946 51.3953 24.0945 52 23.5418V29.8528C52 31.184 50.9917 32.7332 48.8185 34.0064C46.6453 35.2799 43.4867 36.131 39.9852 36.131C36.4836 36.131 33.3224 35.2799 31.1492 34.0064C28.9759 32.7332 27.9678 31.1841 27.9678 29.8528Z" fill="#5969FF"/>
<path d="M27.9678 41.5552V35.2472C28.5725 35.7998 29.2489 36.2999 29.9863 36.732C32.6327 38.2826 36.1323 39.1778 39.9852 39.1778C43.8381 39.1778 47.3351 38.2826 49.9815 36.732C50.7188 36.2999 51.3954 35.7998 52 35.2472V41.5552C52 42.8866 50.9917 44.4385 48.8185 45.7119C46.6453 46.9853 43.4867 47.8334 39.9852 47.8334C36.4836 47.8334 33.3224 46.9853 31.1492 45.7119C28.9759 44.4385 27.9678 42.8866 27.9678 41.5552Z" fill="#5969FF"/>
</svg>
