<svg width="52" height="52" viewBox="0 0 52 52" fill="none" xmlns="http://www.w3.org/2000/svg">
<path d="M48.1802 15.602C48.2015 15.6244 48.2208 15.6467 48.2421 15.6701C44.2934 15.5347 40.3446 15.4331 36.3959 15.3654C35.7783 15.3518 35.19 15.0996 34.7545 14.6616C34.319 14.2236 34.07 13.6339 34.0599 13.0163C34.0098 8.96189 33.9374 4.90751 33.8426 0.853137C33.8182 0.812512 41.4476 6.82603 48.1802 15.602Z" fill="#5969FF"/>
<path d="M2.89648 26.0193C2.90563 32.1212 3.23977 35.9277 3.81055 39.9009C4.20055 42.6014 5.56148 45.2126 7.58461 47.2662C9.60773 49.3198 12.2006 50.7081 14.8971 51.1134L14.9794 51.1256C18.268 51.5938 19.3862 51.9705 26.2924 52C33.1987 51.9513 33.7278 51.5938 37.0205 51.1256L37.1027 51.1134C39.7992 50.7071 42.3901 49.3157 44.4152 47.2662C46.4404 45.2166 47.7993 42.6014 48.1893 39.9009C48.756 35.9277 49.0902 32.1212 49.1034 26.0193C49.1034 23.0445 49.016 20.6172 48.8688 18.4478C44.723 18.3395 40.5772 18.2609 36.4314 18.2122C35.0522 18.1932 33.7352 17.6353 32.7619 16.6578C31.7886 15.6804 31.2364 14.361 31.2233 12.9817C31.1894 8.70188 31.1393 4.42237 31.073 0.143203C30.7988 0.124922 30.5113 0.108672 30.2046 0.0934375C29.0163 0.0365625 27.565 0 25.682 0C18.7758 0.0497656 18.2466 0.40625 14.954 0.875469L14.8717 0.887656C12.1752 1.29391 9.58437 2.68531 7.55922 4.73586C5.53406 6.78641 4.17414 9.39961 3.78414 12.1002L3.80852 12.1174C3.80852 12.1245 3.80852 12.1316 3.80852 12.1388C3.23875 16.1119 2.90461 19.9184 2.89648 26.0193ZM12.4434 36.0811C12.4386 35.7656 12.4976 35.4524 12.6169 35.1603C12.7362 34.8683 12.9133 34.6033 13.1375 34.3813C13.3618 34.1594 13.6285 33.985 13.9218 33.8687C14.2151 33.7524 14.5289 33.6966 14.8443 33.7045C19.0849 33.7573 23.3254 33.78 27.566 33.7726C27.8858 33.7715 28.2027 33.8339 28.4983 33.9561C28.7938 34.0784 29.0621 34.2581 29.2877 34.4848C29.5133 34.7116 29.6917 34.9808 29.8124 35.2769C29.9332 35.5731 29.994 35.8903 29.9913 36.2101C29.9895 36.8574 29.7326 37.4779 29.2763 37.937C28.82 38.3962 28.2011 38.6569 27.5538 38.6628C23.337 38.675 19.1204 38.6378 14.9042 38.5511C14.2561 38.5316 13.6399 38.2649 13.1822 37.8056C12.7244 37.3463 12.4607 36.7293 12.4434 36.0811ZM12.3621 25.7664C12.3688 25.1215 12.6298 24.5053 13.0883 24.0517C13.5468 23.5981 14.1658 23.3438 14.8108 23.3441C22.2695 23.3116 29.7283 23.3116 37.187 23.3441C37.505 23.3441 37.8198 23.4068 38.1136 23.5284C38.4074 23.6501 38.6743 23.8285 38.8991 24.0533C39.1239 24.2781 39.3023 24.5451 39.424 24.8388C39.5457 25.1326 39.6083 25.4474 39.6083 25.7654C39.6083 26.0834 39.5457 26.3982 39.424 26.692C39.3023 26.9857 39.1239 27.2526 38.8991 27.4775C38.6743 27.7023 38.4074 27.8807 38.1136 28.0023C37.8198 28.124 37.505 28.1866 37.187 28.1866C29.7269 28.213 22.2668 28.213 14.8067 28.1866C14.1622 28.1875 13.5435 27.9336 13.0854 27.4802C12.6273 27.0269 12.368 26.4109 12.3621 25.7664Z" fill="#5969FF"/>
</svg>
