<svg width="52" height="52" viewBox="0 0 52 52" fill="none" xmlns="http://www.w3.org/2000/svg">
<path d="M39.8624 15.0721C39.8624 9.03157 40.1827 7.75852 38.7989 7.32983C35.6724 6.35555 35.9415 7.05703 35.9415 2.75721C35.9415 2.13367 35.493 1.40621 34.9036 1.19836C30.3676 -0.399455 21.6545 -0.399455 17.1185 1.19836C16.5419 1.40621 16.0806 2.13367 16.0806 2.75721C16.0806 7.13498 16.2728 6.38153 13.2232 7.32983C12.6338 7.5117 12.1597 8.1872 12.1597 8.81074V15.0591C15.9397 13.4613 20.4884 12.1882 25.8188 11.7985C27.1258 11.7076 33.6094 12.4221 39.8624 15.0721ZM20.5269 3.83541C23.8327 3.25085 28.1893 3.25085 31.508 3.83541C32.9047 4.08223 33.0072 6.0178 31.4952 5.84893C27.9074 5.44622 24.1403 5.44622 20.5397 5.84893C19.0405 6.00481 19.1302 4.06924 20.5269 3.83541ZM49.0112 43.651C48.6268 43.2613 47.9476 43.0534 47.4479 43.0534C44.8468 43.0534 45.3465 47.1064 40.3877 47.1064C35.1855 47.1064 35.9927 42.8066 33.0584 43.0794C31.8668 43.1963 31.2902 44.1186 30.9186 44.7162C29.0222 47.8079 23.5124 48.0158 21.3854 44.5993C20.2065 42.7287 18.3358 42.339 16.7469 44.7812C14.7224 47.743 9.63546 48.0287 7.30341 44.7422C6.79087 44.0147 6.08613 43.0274 4.9073 43.0274C3.84378 43.0274 2.63932 43.9887 2.57525 45.3267C2.47274 47.5221 6.23989 51.9519 12.0188 51.9519C14.7096 51.9519 17.2338 51.0036 19.1174 49.3018C23.0511 52.8352 29.3682 52.8222 33.2763 49.3018C41.4897 56.6674 53.073 46.9765 49.0112 43.651ZM14.1202 42.6767C16.5419 38.8445 21.4751 38.4288 24.3068 42.9365C24.435 43.0924 24.64 43.2613 24.8835 43.3912V14.1758C12.5185 15.4099 4.71509 21.6582 1.80644 24.4382C1.02482 25.1786 0.858249 26.3608 1.39641 27.2961L10.4811 43.2483C11.4806 43.9887 13.3129 43.9238 14.1202 42.6767ZM50.19 24.4382C47.2814 21.6712 39.4652 15.4099 27.113 14.1758V43.573C27.3949 43.4821 27.8818 43.2483 28.0484 42.9885C30.8289 38.4938 35.903 38.7146 38.376 42.8066C38.8117 43.5341 40.1058 44.0017 41.3744 43.5341L50.6128 27.2831C51.1382 26.3478 50.9716 25.1656 50.19 24.4382Z" fill="#5969FF"/>
</svg>
