<svg width="52" height="52" viewBox="0 0 52 52" fill="none" xmlns="http://www.w3.org/2000/svg">
<path d="M49.2143 17.3971H45.8277L43.6429 10.5693C42.4958 7.07353 39.2731 4.72479 35.6134 4.72479H16.2773C12.6176 4.72479 9.34034 7.07353 8.2479 10.5693L6.06303 17.3971H2.67647C1.20168 17.3971 0 18.5987 0 20.0735V21.6029C0 23.0777 1.20168 24.2794 2.67647 24.2794H3.60504C3.05882 26.7374 2.78571 29.25 2.78571 31.7626V44.5987C2.78571 46.0735 3.9874 47.2752 5.46219 47.2752H9.94118C11.416 47.2752 12.6176 46.0735 12.6176 44.5987V40.5021H39.3824V44.5987C39.3824 46.0735 40.584 47.2752 42.0588 47.2752H46.5378C48.0126 47.2752 49.2143 46.0735 49.2143 44.5987V31.708C49.2143 29.1954 48.9412 26.6828 48.395 24.2248H49.3235C50.7983 24.2248 52 23.0231 52 21.5483V20.0189C51.8908 18.5987 50.6891 17.3971 49.2143 17.3971ZM10.7605 20.1282L13.3277 12.1534C13.7647 10.8424 14.9664 9.96849 16.2773 9.96849H35.6134C36.979 9.96849 38.1807 10.8424 38.563 12.1534L41.1303 20.1282C41.2395 20.5105 40.9664 20.8382 40.584 20.8382H11.3067C10.9244 20.8929 10.6513 20.5105 10.7605 20.1282ZM16.3319 33.1828H10.9244C9.9958 33.1828 9.28571 32.4727 9.28571 31.5441V28.9769C9.28571 27.9937 10.2143 27.1744 11.1975 27.3382L16.2227 28.1576C16.8782 28.2668 17.4244 28.7584 17.5882 29.4139L17.9706 31.1618C18.1891 32.1996 17.4244 33.1828 16.3319 33.1828ZM30.916 35.313C30.916 35.6954 30.6429 35.9685 30.2605 35.9685H21.5756C21.1933 35.9685 20.9202 35.6954 20.9202 35.313V33.729C20.9202 33.3466 21.1933 33.0735 21.5756 33.0735H30.3151C30.6975 33.0735 30.9706 33.3466 30.9706 33.729V35.313H30.916ZM42.5504 31.5441C42.5504 32.4727 41.8403 33.1828 40.9118 33.1828H35.5042C34.4664 33.1828 33.7017 32.1996 33.9202 31.2164L34.3025 29.4685C34.4664 28.813 34.958 28.3214 35.6681 28.2122L40.6933 27.3929C41.6765 27.229 42.605 27.9937 42.605 29.0315V31.5441H42.5504Z" fill="#5969FF"/>
</svg>
