<svg width="34" height="40" viewBox="0 0 34 40" fill="none" xmlns="http://www.w3.org/2000/svg">
<path fill-rule="evenodd" clip-rule="evenodd" d="M28.9337 40H5.06607C2.50458 40 0.40741 38.2014 0.40741 36.0034V16.3265C0.40741 14.2312 2.31258 12.4985 4.71028 12.3414C3.76054 5.77201 9.19232 -0.0879542 17.1639 0.000999795C24.9803 0.0879988 30.2289 5.83066 29.2886 12.3417C31.6869 12.4983 33.5926 14.2314 33.5926 16.3267V36.0034C33.5926 38.2006 31.4954 40 28.9337 40ZM8.63769 12.3299H25.3586C26.2462 7.67548 22.9891 3.46703 17.2642 3.31649C11.3163 3.15984 7.71616 7.48218 8.63769 12.3299ZM18.5019 31.2903C20.0151 31.0794 20.7715 30.4235 20.7715 29.3187V28.0049C20.7715 27.6024 20.6128 27.2363 20.2997 26.9101C19.9827 26.5858 19.0785 25.913 17.5798 24.8964C16.8381 24.3734 16.4669 23.924 16.4669 23.5462L16.4059 22.8756C16.4059 22.4753 16.5928 22.274 16.964 22.274C17.2844 22.274 17.4428 22.3773 17.4428 22.5838V23.8047H20.4686V22.6992C20.4686 21.7762 19.8132 21.2011 18.5019 20.9778V20.273H15.4764V20.9778C13.978 21.194 13.2288 21.8299 13.2288 22.8832V24.0423C13.2288 24.5161 13.5926 25.0345 14.3164 25.5943C15.8365 26.6158 16.7372 27.2564 17.0181 27.5193C17.303 27.7796 17.4431 28.0398 17.4431 28.2999V29.523C17.4431 29.7586 17.2485 29.8766 16.8597 29.8766C16.4563 29.8766 16.2547 29.7586 16.2547 29.523V27.8299H13.2288V29.5051C13.2288 30.4159 13.978 31.0029 15.4764 31.2608V31.9655H18.5022L18.5019 31.2903Z" fill="#5969FF"/>
</svg>
