<svg width="36" height="40" viewBox="0 0 36 40" fill="none" xmlns="http://www.w3.org/2000/svg">
<path fill-rule="evenodd" clip-rule="evenodd" d="M22.5061 0C23.7314 0 24.7247 0.993268 24.7247 2.21854C24.7247 3.44382 23.7314 4.43708 22.5061 4.43708H20.7962V5.99004C29.1683 7.08068 35.6542 14.2582 35.6542 22.9229C35.6542 32.3393 27.9942 39.9992 18.5779 39.9992C9.16152 39.9992 1.50157 32.3393 1.50157 22.9229C1.50157 14.2583 7.98721 7.08092 16.3591 5.99009V4.43708H14.6492C13.4239 4.43708 12.4306 3.44382 12.4306 2.21854C12.4306 0.993268 13.4239 0 14.6492 0H22.5061ZM23.4568 29.0216C23.7739 29.0216 24.0789 28.9118 24.3228 28.6679C24.7986 28.1922 24.7986 27.4237 24.3228 26.9481L19.7976 22.4228V14.3848C19.7976 13.7139 19.2488 13.1651 18.5779 13.1651C17.907 13.1651 17.3581 13.7139 17.3581 14.3848V22.9229C17.3581 23.2522 17.4801 23.5572 17.7119 23.7889L22.5907 28.6679C22.8347 28.8996 23.1397 29.0216 23.4568 29.0216Z" fill="#5969FF"/>
<path d="M7.19822 5.03583C6.3614 4.14082 4.95758 4.09361 4.0625 4.93038L1.04944 7.74744C0.154357 8.58424 0.107143 9.98813 0.943969 10.8832C1.78079 11.7782 3.18471 11.8254 4.07969 10.9886L7.09275 8.17156C7.98783 7.33479 8.03505 5.93087 7.19822 5.03583Z" fill="#5969FF"/>
</svg>
