<svg width="171" height="82" viewBox="0 0 171 82" fill="none" xmlns="http://www.w3.org/2000/svg">
<mask id="mask0_781_27405" style="mask-type:luminance" maskUnits="userSpaceOnUse" x="44" y="0" width="83" height="82">
<path d="M126.338 0.0546875H44.9209V81.9479H126.338V0.0546875Z" fill="white"/>
</mask>
<g mask="url(#mask0_781_27405)">
<path d="M109.754 41.0015C109.754 54.4112 98.9613 65.2661 85.6295 65.2661V41.0015H109.754ZM85.6295 16.7368V41.0015H61.5059C61.5059 27.5917 72.2976 16.7368 85.6295 16.7368Z" fill="#4A4A4A"/>
<path d="M85.6294 16.7366V18.067C98.2006 18.067 108.43 28.3541 108.43 41.0013H109.753C109.753 27.6011 98.9516 16.7366 85.6294 16.7366ZM85.6294 63.9355C73.0582 63.9355 62.8285 53.6484 62.8285 41.0013H61.5058C61.5058 54.4014 72.3071 65.2659 85.6294 65.2659M85.6294 0.0546875C63.1473 0.0546875 44.9209 18.3877 44.9209 41.0013C44.9209 63.6148 63.1473 81.9479 85.6294 81.9479C108.112 81.9479 126.338 63.6148 126.338 41.0013C126.338 18.3877 108.112 0.0546875 85.6294 0.0546875ZM123.691 41.0013C123.691 62.1438 106.651 79.2852 85.6294 79.2852C64.6074 79.2852 47.5681 62.1438 47.5681 41.0013C47.5681 19.8587 64.6098 2.71737 85.6294 2.71737C106.649 2.71737 123.691 19.8587 123.691 41.0013Z" fill="#4A4A4A"/>
<path d="M68.2327 21.2483C69.5336 19.8796 70.2701 18.2983 68.9692 16.7887C68.2615 15.9693 67.073 15.7902 66.0878 16.1939L65.9898 16.2321L66.0208 16.1461C66.1667 15.7567 66.26 14.5146 65.2006 13.6571C64.6841 13.2391 64.0361 13.0838 63.3808 13.1507C62.1589 13.2749 61.2191 14.1085 58.6604 16.9583C57.888 17.8182 56.7642 19.175 56.0898 20.054L63.1177 26.7137C65.4469 24.1387 66.3963 23.1808 68.2327 21.2483ZM59.0622 19.6193C60.4778 17.8898 61.9819 16.3205 62.6634 15.6994C62.8786 15.5035 63.113 15.3077 63.3976 15.2312C63.8591 15.1046 64.3349 15.4319 64.4426 15.9048C64.5502 16.3802 64.2512 16.8317 63.9189 17.2043C63.1704 18.0475 60.4252 20.9163 60.4252 20.9163L59.0622 19.6193ZM61.8146 22.2277C61.8146 22.2277 64.488 19.4043 65.3608 18.5013C65.7075 18.143 65.9299 17.9257 66.1691 17.8086C66.4775 17.6581 66.8147 17.6271 67.116 17.8277C67.4125 18.026 67.5488 18.3676 67.4747 18.7068C67.3862 19.1105 67.0562 19.495 66.7836 19.7889C66.4154 20.183 63.2445 23.5725 63.2397 23.5773L61.8146 22.2277ZM86.4328 13.3059L88.6829 8.27059L88.8265 7.8239L88.7858 8.2897L89.0226 15.0186C89.8116 15.0927 90.6271 15.2026 91.4306 15.3363L91.0647 5.37072C89.9408 5.24651 88.8216 5.15813 87.7026 5.11035L85.4858 10.6067L85.4069 11.0152L85.3281 10.6067L83.1137 5.11035C81.9946 5.15813 80.8754 5.24651 79.7516 5.37072L79.3857 15.3363C80.1891 15.2026 81.0045 15.0951 81.7937 15.0186L82.0304 8.2897L81.9898 7.8239L82.1332 8.27059L84.3835 13.3059H86.4328ZM105.121 23.723C105.673 24.3154 106.469 25.2709 106.917 25.8513L115.152 20.6297C114.741 20.0922 114.086 19.2753 113.596 18.6996L108.38 22.1441L108.024 22.4499L108.29 22.0629L110.592 17.4718L108.964 15.8451L104.365 18.1454L103.978 18.4106L104.286 18.0547L107.737 12.8473C107.129 12.3314 106.546 11.8584 105.802 11.2851L100.575 19.5046C101.237 20.0134 102.11 20.761 102.667 21.2698L107.589 18.7187L107.904 18.487L107.672 18.8023L105.121 23.723Z" fill="#4A4A4A"/>
</g>
</svg>
