<svg width="171" height="82" viewBox="0 0 171 82" fill="none" xmlns="http://www.w3.org/2000/svg">
<path fill-rule="evenodd" clip-rule="evenodd" d="M46.8398 57.7275V50.8935H50.4331V67.9769H46.8383L46.8376 60.3351H41.6895V67.9769H38.0962V50.8935H41.6895V57.7275H46.8398ZM132.576 50.8935H145.931V53.5011H141.05V67.9769H137.457V53.5011H132.576V50.8935ZM113.604 50.8935L113.602 65.3693H120.288V67.9769H110.01V50.8935H113.604ZM72.4864 65.1358L76.215 50.8935H79.3888L75.1466 66.5019C74.9015 67.4845 74.2714 67.979 73.2962 67.979H69.9812C69.0053 67.979 68.3172 67.5038 68.1059 66.4773L63.7587 50.8935H67.9504L71.733 65.1276C71.7902 65.2918 71.9308 65.3611 72.1119 65.3611C72.3016 65.3611 72.4346 65.3135 72.4864 65.1358ZM26.0022 53.5614C26.0022 51.8352 26.8541 50.8935 28.6909 50.8935H36.7188V53.5011L30.9104 53.5004C29.8353 53.5004 29.5955 53.7763 29.5955 54.8037L29.5917 64.0578C29.5917 65.1239 29.9106 65.3649 30.9075 65.3649L36.7188 65.3641V67.9769L28.6842 67.979C26.9827 67.979 26 67.2084 26 65.3074L26.0022 53.5614ZM56.1835 64.0578C56.1835 65.1434 56.5029 65.3649 57.5001 65.3649L64.1495 65.3641V67.9769L55.2768 67.979C53.4782 67.979 52.5925 67.1123 52.5925 65.3074L52.594 53.5614C52.594 51.8157 53.4241 50.8959 55.2805 50.8959L63.4007 50.8935V53.5011L57.5023 53.5004C56.4084 53.5004 56.188 53.8144 56.188 54.8037L56.1888 57.7275H63.3263V60.3351H56.185L56.1835 64.0578ZM89.8745 60.758L89.0684 60.7648L93.8195 67.9769H89.373L84.8354 60.2894C84.6858 60.0231 84.4963 59.756 84.4963 59.3861C84.4963 58.6496 84.9256 58.1945 85.6873 58.1945L87.6504 58.1916C88.6866 58.1916 88.967 57.8931 88.967 56.8852L88.9632 54.8037C88.9632 53.8144 88.7616 53.5004 87.6473 53.5004L83.4488 53.5011V67.9769H79.8564V50.8935H89.8707C91.7075 50.8935 92.5563 51.7777 92.5563 53.5614L92.5587 58.0879C92.5587 60.0074 91.5361 60.758 89.8745 60.758ZM105.147 50.8959C107.004 50.8959 107.833 51.8157 107.833 53.5614L107.835 65.3074C107.835 67.1697 106.87 67.9783 105.149 67.9783H101.208L97.2264 67.979C95.5827 67.979 94.5413 67.2473 94.5413 65.3074L94.5436 53.5614C94.5436 51.8545 95.3346 50.8959 97.23 50.8959H105.147ZM102.928 65.3649C103.905 65.3649 104.244 65.1627 104.244 64.0578L104.241 54.8037C104.241 53.6608 103.868 53.5011 102.928 53.5011L99.4488 53.5004C98.2571 53.5004 98.1339 53.9115 98.1339 54.8037L98.133 64.0578C98.133 65.0859 98.4136 65.3649 99.4488 65.3649H102.928ZM124.577 64.0578C124.577 65.1434 124.897 65.3649 125.894 65.3649L132.544 65.3641V67.9769L123.671 67.979C121.871 67.979 120.986 67.1123 120.986 65.3074L120.988 53.5614C120.988 51.8157 121.817 50.8959 123.674 50.8959L131.795 50.8935V53.5011L125.897 53.5004C124.802 53.5004 124.582 53.8144 124.582 54.8037L124.584 57.7275H131.719V60.3351H124.579L124.577 64.0578ZM117.412 19.8679C117.885 19.8679 118.577 20.1478 118.577 20.9423C118.577 21.2438 118.484 21.387 118.352 21.6399L112.315 33.3441C111.894 34.1206 111.29 34.34 110.45 34.34L98.2738 34.343C97.7113 34.343 97.4653 34.5781 97.4653 35.154L97.4669 37.9705C97.4669 38.8373 96.97 39.1961 96.2233 39.1961L74.3172 39.1977C73.5707 39.1977 73.0737 38.8119 73.0737 37.9637L73.0759 35.1466C73.0759 34.6064 72.8655 34.3355 72.2669 34.3355L52.8497 34.3378C51.9947 34.3378 51.6849 33.7328 51.6849 33.2635C51.6849 33.0852 51.7323 32.9092 51.8097 32.7614L57.9159 20.9177C58.2053 20.3209 58.7669 19.8665 59.7263 19.8665L72.2669 19.8628C72.7933 19.8628 73.0759 19.6465 73.0759 19.0518L73.0774 16.2355C73.0774 15.4587 73.4985 15.0007 74.3172 15.0007L96.2233 15C97.0241 15 97.4646 15.4297 97.4646 16.2421L97.4653 19.0593C97.4653 19.7256 97.7849 19.8703 98.2745 19.8703L117.412 19.8679ZM112.589 24.5853C112.638 24.4943 112.665 24.3914 112.665 24.2825C112.665 23.9944 112.483 23.6326 111.928 23.6326H94.4969C93.9346 23.6326 93.673 23.3849 93.673 22.8268L93.6744 19.5779C93.6744 19.0019 93.403 18.7616 92.8586 18.7616L77.6834 18.7632C77.1211 18.7632 76.8677 18.9943 76.8677 19.5711L76.8685 22.8195C76.8685 23.432 76.5534 23.6342 76.0443 23.6342L61.3165 23.6334C60.8767 23.6334 60.6948 23.7706 60.5827 23.9713L57.6722 29.6205C57.6248 29.7107 57.597 29.8137 57.597 29.9234C57.597 30.3016 57.8985 30.5732 58.3331 30.5732H76.0443C76.5888 30.5732 76.8623 30.785 76.8623 31.379L76.8647 34.6281C76.8647 35.2585 77.1752 35.436 77.6826 35.436L85.2722 35.4345H92.8571C93.4377 35.4345 93.6768 35.1756 93.6768 34.6356L93.6789 31.3865C93.6789 30.8463 93.8978 30.5763 94.4969 30.5763H108.945C109.172 30.5763 109.497 30.5612 109.679 30.2337L112.589 24.5853Z" fill="#4A4A4A"/>
</svg>
