<svg width="171" height="82" viewBox="0 0 171 82" fill="none" xmlns="http://www.w3.org/2000/svg">
<path d="M81.9091 72.7136C77.7467 72.6032 73.1565 72.2348 69.0934 71.6849C51.7944 69.344 37.2985 63.3774 29.2286 55.2765C25.8065 51.8412 23.6379 48.0668 22.9067 44.2731C22.6685 43.0376 22.6123 42.4323 22.6123 41.0993C22.6123 39.7664 22.6685 39.161 22.9067 37.9256C23.3874 35.4318 24.5291 32.8604 26.2137 30.4774C30.0236 25.0882 36.7088 20.2902 45.4803 16.6497C60.0999 10.5821 79.2424 8.1786 97.883 10.0702C119.765 12.2907 137.767 20.3227 144.91 31.0529C148.175 35.9584 148.975 41.2865 147.228 46.4938C146.219 49.5009 144.259 52.5061 141.499 55.2765C133.853 62.952 120.396 68.74 104.245 71.3006C97.0218 72.4459 89.5747 72.917 81.9091 72.7136ZM91.4524 68.6637C100.211 68.1183 107.607 66.8234 114.815 64.5733C120.534 62.788 125.864 60.3164 129.956 57.5527C132.019 56.16 133.449 54.9846 135.068 53.3535C136.989 51.4165 138.229 49.7169 139.238 47.6364C140.368 45.309 140.805 43.4844 140.805 41.0993C140.805 38.7004 140.34 36.7786 139.195 34.4591C138.206 32.4533 136.945 30.7372 135.068 28.8452C132.312 26.0665 129.037 23.775 124.709 21.5961C116.609 17.517 106.473 14.8483 95.1808 13.8214C88.9267 13.2526 81.8212 13.2523 75.5468 13.8207C59.672 15.2585 46.0447 19.9984 37.6131 27.0149C36.5435 27.9049 34.637 29.841 33.8379 30.8486C30.9806 34.4515 29.6317 38.3389 29.9391 42.0848C30.2739 46.166 32.101 49.7647 35.6604 53.3535C38.3565 56.072 41.5622 58.3315 45.7311 60.4519C55.2245 65.2802 66.8896 68.0473 80.6092 68.7255C82.1588 68.8021 89.9423 68.7578 91.4524 68.6637ZM46.9512 57.1025C46.8759 57.0711 46.7527 56.9765 46.6775 56.8923C46.5417 56.7405 46.5406 56.6299 46.5231 42.0071L46.5056 27.2749L46.3243 27.0847C46.153 26.9048 46.1056 26.8934 45.4525 26.8749L44.762 26.8554V25.9265V24.9975L49.7331 24.9799L54.7042 24.9622L54.9152 25.1408L55.1263 25.3194V30.6308C55.1263 36.4665 55.1107 36.2481 55.5278 36.2481C55.7867 36.2481 55.8764 36.1396 57.3185 34.0806C61.1388 28.6262 63.2403 25.6596 63.4299 25.4536C63.897 24.946 63.6852 24.9663 68.5208 24.9646L72.8509 24.9631L73.016 25.1292C73.219 25.3333 73.2954 25.612 73.203 25.8111C73.1445 25.9374 71.271 28.7356 64.7286 38.4683C64.0144 39.5308 63.8149 39.877 63.8166 40.0509C63.8185 40.2313 64.2831 40.9326 66.2667 43.7485C75.0328 56.1927 75.0609 56.2332 75.0879 56.4847C75.1083 56.6738 75.0744 56.7787 74.9433 56.932L74.7721 57.1322L70.2499 57.1509C65.7912 57.1693 65.7231 57.1675 65.3948 57.0255C65.2117 56.9462 64.9856 56.7985 64.8923 56.6972C64.7989 56.5958 62.7376 53.7106 60.3114 50.2856C57.8853 46.8605 55.8511 44.0172 55.7911 43.9672C55.6224 43.8267 55.3139 43.8937 55.2144 44.0926C55.147 44.227 55.1281 45.6291 55.1273 50.5054L55.1262 56.7461L54.961 56.9392L54.796 57.1322L50.9419 57.1459C48.8221 57.1535 47.0263 57.134 46.9512 57.1025ZM81.2917 57.0715C81.1779 57.0212 81.0471 56.8967 81.0009 56.7948C80.9356 56.6506 80.9171 53.3768 80.9171 41.9509V27.2921L80.7172 27.091C80.524 26.8967 80.4949 26.8899 79.862 26.8899H79.2068V25.9265V24.9632H84.2681H89.3295L89.5529 25.164L89.7763 25.3647V41.0577V56.7507L89.5867 56.9415L89.397 57.1323L85.4478 57.1477C82.2845 57.16 81.4575 57.1447 81.2917 57.0715ZM96.0017 57.0836C95.7893 56.961 95.6984 56.8078 95.696 56.5679C95.6949 56.4467 96.666 53.4276 97.8542 49.8588C99.0423 46.29 100.932 40.6142 102.054 37.2459C103.175 33.8776 104.357 30.3348 104.682 29.3729C105.006 28.411 105.272 27.5396 105.272 27.4366C105.272 27.3335 105.213 27.1761 105.141 27.0867C105.024 26.9411 104.941 26.9207 104.337 26.8899L103.664 26.8555L103.644 25.9093L103.625 24.9632L109.699 24.9639C113.686 24.9639 115.86 24.9889 116.028 25.0358C116.169 25.075 116.318 25.171 116.359 25.249C116.445 25.4098 117.126 27.435 120.336 37.0743C125.558 52.7557 126.752 56.375 126.752 56.5229C126.752 56.7653 126.617 57.0067 126.434 57.0907C126.318 57.1437 125.104 57.167 122.456 57.167C118.964 57.1669 118.626 57.1568 118.411 57.0466C118.282 56.9804 118.12 56.8484 118.051 56.7533C117.981 56.6582 117.451 55.0945 116.872 53.2784C111.349 35.9669 111.502 36.4393 111.378 36.3002C111.241 36.1464 111.137 36.1479 110.994 36.3054C110.882 36.4308 110.669 37.089 107.667 46.6046C106.795 49.3673 105.855 52.34 105.578 53.2104C105.302 54.0809 104.947 55.2033 104.79 55.7048C104.481 56.6907 104.345 56.9258 103.996 57.0722C103.696 57.1985 96.2195 57.2092 96.0017 57.0836Z" fill="#4A4A4A"/>
</svg>
