<svg width="171" height="82" viewBox="0 0 171 82" fill="none" xmlns="http://www.w3.org/2000/svg">
<path fill-rule="evenodd" clip-rule="evenodd" d="M87.1399 16.7691C84.6948 19.7943 77.7207 29.5614 76.9259 30.826C75.3958 33.2491 75.2606 34.4233 75.2155 35.2057C75.1711 35.9736 75.1711 37.3582 76.4159 38.4872C78.5012 40.3533 81.4256 40.0519 84.0209 40.0519H105.396C106.311 40.0519 106.581 39.7806 107.076 39.1188C108.786 36.4998 109.551 33.6554 109.551 31.1117C109.551 25.6633 106.027 18.801 97.1013 15.7003L96.0955 17.1452C103.175 20.5157 106.101 24.9255 106.101 31.0959C106.146 32.7518 105.711 34.5425 104.631 36.1983H83.84C82.5952 36.1983 82.415 34.7837 82.8649 33.9856C84.6473 30.8029 86.6365 27.7413 88.8196 24.8207C90.9199 22.0064 92.9895 19.3723 95.1649 16.6183C95.75 15.8511 95.3595 15.1132 94.1898 14.8728C91.7598 14.361 89.2252 14 86.1499 14C69.0956 14 62.8548 23.8273 62.8548 31.1117C62.8548 39.0133 69.14 48.1789 86.1949 48.1789C95.6599 48.1789 101.856 45.1228 105.44 41.1952H101.825C98.6895 44.0999 93.3043 46.1627 86.1949 46.1627C71.7496 46.1627 66.4252 38.0199 66.4252 31.0062C66.5296 24.7453 72.2447 16.1066 86.5555 15.8209C87.0956 15.8058 87.5162 16.3025 87.1399 16.7691ZM138.441 61.8734C139.296 61.994 139.956 62.6708 139.956 63.4696C139.956 64.3712 139.146 65.0939 138.155 65.0939H119.826V53.0689H114.425V65.1248H104.495C101.811 65.1248 101.256 63.484 101.256 61.9789V52.9942H92.3012C91.4156 53.5964 90.5608 54.2589 89.6458 54.8151L84.3357 58.0959L77.436 53.0394H66.6955V56.0647H70.58V54.4082L79.7152 60.9862L73.4751 64.9131H66.6949V67.9383H74.5396C75.3794 67.367 76.1749 66.7648 77.0447 66.238L82.5044 62.912L89.4341 67.8787H97.3253L86.8989 60.0073L92.2548 56.5018C93.3951 55.7482 94.5954 55.1172 95.7651 54.4253V62.3413C95.7651 65.6824 96.6199 68 103.325 68L141.201 67.9102C144.125 67.9541 146 65.9235 146 63.471C146 61.0315 143.84 59.0304 141.201 59.0304H127.521C127.701 57.3602 129.14 55.9613 130.595 55.9613H144.44L144.396 53.0566H129.71C125.06 53.0566 121.341 56.9245 121.236 61.4247C121.221 61.7405 121.43 61.9358 121.776 61.9358L138.441 61.8734ZM66.6955 61.8289V58.7433H69.3653V61.8289H66.6955ZM66.6955 53.0394H56.5553C53.8104 53.0394 51.6951 53.7622 50.1356 54.9953C47.3307 57.2232 46.4307 59.5702 46.4608 60.6245H50.1206C48.5153 61.8289 47.4351 63.2723 46.8657 64.9439H34.8648C32.7051 64.9439 31.3095 63.4093 31.3095 61.9186V52.9339H26V62.2653C26 65.6208 29.1805 67.9383 34.2796 67.9383H66.6955V64.9131H53.8255C53.8855 63.3785 55.5202 61.8289 57.0052 61.8289H66.6955V58.7433H53.6752C53.4957 57.8404 55.1754 56.0647 56.4652 56.0647H66.6955V53.0394Z" fill="#4A4A4A"/>
</svg>
