<svg width="24" height="16" viewBox="0 0 24 16" fill="none" xmlns="http://www.w3.org/2000/svg">
<path d="M22.2026 0.137939H1.79742C0.804703 0.137939 0 0.942643 0 1.93536V14.0647C0 15.0574 0.804703 15.8622 1.79742 15.8622H22.2026C23.1952 15.8622 24 15.0575 24 14.0647V1.93536C24 0.942643 23.1953 0.137939 22.2026 0.137939Z" fill="#FF4B55"/>
<path d="M3.98457 2.59684L4.37907 3.77968L5.62595 3.78934C5.78738 3.79056 5.85432 3.99662 5.72443 4.09248L4.7214 4.83315L5.09748 6.022C5.14613 6.17593 4.97091 6.3032 4.83957 6.20936L3.8252 5.48425L2.81082 6.20931C2.67948 6.3032 2.50426 6.17584 2.55291 6.02195L2.92899 4.83311L1.92596 4.09248C1.79607 3.99658 1.86301 3.79056 2.02445 3.78934L3.27132 3.77968L3.66582 2.59684C3.71691 2.4437 3.93352 2.4437 3.98457 2.59684ZM8.51232 2.88831L8.79521 3.274L9.25173 3.13122C9.31084 3.11275 9.35945 3.18015 9.32326 3.23036L9.04379 3.61853L9.32063 4.00858C9.35649 4.05906 9.30741 4.12614 9.24844 4.10725L8.79287 3.96142L8.50744 4.34528C8.47051 4.39497 8.39152 4.369 8.39129 4.30712L8.38918 3.82876L7.9359 3.6759C7.87721 3.65608 7.87749 3.57301 7.93632 3.55361L8.39054 3.40379L8.39588 2.92548C8.39654 2.86375 8.47571 2.83839 8.51232 2.88831ZM6.79004 1.73847L7.26554 1.79012L7.46841 1.35695C7.49471 1.30089 7.57726 1.3105 7.58987 1.37111L7.68765 1.83929L8.1623 1.89836C8.22376 1.906 8.24012 1.98747 8.18635 2.01826L7.77127 2.25592L7.86179 2.72561C7.87351 2.78645 7.80109 2.82714 7.7552 2.78556L7.40087 2.46423L6.98218 2.69542C6.92799 2.72537 6.86682 2.66903 6.89223 2.61254L7.0883 2.17623L6.73899 1.84942C6.69385 1.80733 6.72849 1.73181 6.79004 1.73847ZM7.54182 6.37412L7.25898 6.7599L6.80246 6.61712C6.74335 6.59865 6.69474 6.66601 6.73093 6.71626L7.0104 7.10443L6.73355 7.49448C6.69769 7.54497 6.74677 7.61204 6.80574 7.59315L7.26127 7.44732L7.54669 7.83118C7.58363 7.88087 7.66262 7.8549 7.66285 7.79303L7.66496 7.31467L8.11824 7.16181C8.17693 7.14198 8.17665 7.05892 8.11782 7.03951L7.6636 6.8897L7.65826 6.41139C7.65751 6.34956 7.57843 6.32415 7.54182 6.37412ZM9.26401 5.29356L8.78846 5.34522L8.58559 4.91204C8.55929 4.85598 8.47679 4.86559 8.46413 4.9262L8.3663 5.39439L7.89165 5.45345C7.83019 5.46109 7.81384 5.54256 7.8676 5.57336L8.28268 5.81101L8.19216 6.2807C8.18044 6.34154 8.25287 6.38223 8.29876 6.34065L8.65309 6.01933L9.07177 6.25051C9.12596 6.28047 9.18713 6.22412 9.16173 6.16764L8.96565 5.73133L9.31496 5.40451C9.36029 5.36242 9.32565 5.2869 9.26401 5.29356Z" fill="#FFE15A"/>
</svg>
