<svg width="20" height="20" viewBox="0 0 20 20" fill="none" xmlns="http://www.w3.org/2000/svg">
<path d="M8.52919 0C13.2397 0 17.0584 3.81865 17.0584 8.52919C17.0584 10.2612 16.5421 11.8726 15.6551 13.218L19.4953 17.0584C20.1682 17.7313 20.1682 18.8224 19.4953 19.4953C18.8224 20.1682 17.7313 20.1682 17.0584 19.4953L13.218 15.6551C11.8726 16.5421 10.2612 17.0584 8.52919 17.0584C3.81865 17.0584 0 13.2397 0 8.52919C0 3.81865 3.81865 0 8.52919 0ZM8.52919 2.43691C5.16452 2.43691 2.43691 5.16452 2.43691 8.52919C2.43691 11.8939 5.16452 14.6215 8.52919 14.6215C11.8939 14.6215 14.6215 11.8939 14.6215 8.52919C14.6215 5.16452 11.8939 2.43691 8.52919 2.43691Z" fill="white"/>
</svg>
