<svg width="28" height="27" viewBox="0 0 28 27" fill="none" xmlns="http://www.w3.org/2000/svg">
<path d="M14.7426 2.17041H14.737C8.61991 2.17041 3.64551 7.1462 3.64551 13.2647C3.64551 15.6916 4.42766 17.9409 5.75758 19.7673L4.37496 23.8889L8.63933 22.5257C10.3936 23.6878 12.4863 24.359 14.7426 24.359C20.8597 24.359 25.8341 19.3818 25.8341 13.2647C25.8341 7.14759 20.8597 2.17041 14.7426 2.17041ZM21.1981 17.8369C20.9304 18.5927 19.8681 19.2196 19.0208 19.4026C18.4411 19.526 17.6839 19.6245 15.135 18.5678C11.8747 17.217 9.7751 13.904 9.61146 13.6891C9.45476 13.4741 8.29402 11.9348 8.29402 10.3427C8.29402 8.75071 9.10251 7.9755 9.42841 7.64267C9.69606 7.36947 10.1384 7.24466 10.5628 7.24466C10.7001 7.24466 10.8235 7.2516 10.9345 7.25714C11.2604 7.27101 11.424 7.29043 11.6389 7.80492C11.9066 8.44978 12.5584 10.0418 12.636 10.2055C12.7151 10.3691 12.7941 10.591 12.6832 10.8059C12.5792 11.0278 12.4877 11.1263 12.324 11.3149C12.1604 11.5035 12.0051 11.6477 11.8414 11.8502C11.6916 12.0263 11.5225 12.2149 11.7111 12.5408C11.8997 12.8598 12.5514 13.9234 13.5111 14.7777C14.7495 15.8802 15.7535 16.2324 16.1127 16.3822C16.3804 16.4931 16.6993 16.4668 16.8949 16.2588C17.1431 15.9911 17.4496 15.5474 17.7616 15.1105C17.9835 14.7971 18.2636 14.7583 18.5576 14.8692C18.8572 14.9732 20.4423 15.7568 20.7682 15.919C21.0941 16.0826 21.309 16.1603 21.3881 16.2976C21.4657 16.4349 21.4657 17.0798 21.1981 17.8369Z" fill="#5969FF"/>
</svg>
